<svg width="100" height="100" viewBox="0 0 100 100" fill="none" xmlns="http://www.w3.org/2000/svg">
<path d="M65.2006 52.7932C65.2006 52.1864 64.709 51.6948 64.1022 51.6948H35.8972C35.2907 51.6948 34.7988 52.1864 34.7988 52.7932C34.7988 53.3999 35.2907 53.8915 35.8972 53.8915H64.1022C64.7092 53.8915 65.2006 53.3999 65.2006 52.7932Z" fill="#D9B873"/>
<path d="M97.5023 52.7474C97.5003 52.705 97.4961 52.6631 97.4893 52.6209C97.4847 52.5926 97.4801 52.5645 97.4735 52.5366C97.4645 52.4983 97.452 52.4612 97.4388 52.4241C97.4285 52.3958 97.4193 52.3674 97.4067 52.3402C97.3916 52.3064 97.3722 52.2741 97.3533 52.2418C97.3375 52.2143 97.3226 52.1866 97.3044 52.1609C97.2998 52.1548 97.2971 52.1475 97.2925 52.1414L83.0669 32.8328C83.0472 32.806 83.0257 32.7816 83.0039 32.757C82.9984 32.7508 82.9938 32.744 82.9881 32.7381C82.9435 32.6898 82.8939 32.6471 82.8418 32.608C82.8363 32.6039 82.8321 32.5986 82.8266 32.5944C82.8225 32.5913 82.8178 32.5898 82.8137 32.587C82.7616 32.5503 82.7067 32.5184 82.6491 32.4914C82.6366 32.4857 82.6245 32.4806 82.6118 32.4751C82.5545 32.4508 82.4958 32.4299 82.4348 32.4154C82.4275 32.4136 82.4203 32.413 82.4128 32.4114C82.357 32.3994 82.2999 32.3925 82.2423 32.3893C82.23 32.3886 82.2179 32.3873 82.2056 32.3871C82.1979 32.3868 82.1905 32.3857 82.1828 32.3857H54.7951C54.1884 32.3857 53.6968 32.8776 53.6968 33.4841C53.6968 34.0906 54.1884 34.5824 54.7951 34.5824H80.0331L69.7409 48.8123C69.3855 49.3037 69.4958 49.9904 69.9872 50.3458C70.1818 50.4866 70.4069 50.5543 70.6301 50.5543C70.9706 50.5543 71.306 50.3964 71.5211 50.0996L82.1914 35.3468L94.2352 51.6944H72.338C71.7313 51.6944 71.2397 52.186 71.2397 52.7927C71.2397 53.3994 71.7313 53.891 72.338 53.891H93.7449L49.9998 97.3528L6.25487 53.8912H27.662C28.2685 53.8912 28.7603 53.3996 28.7603 52.7929C28.7603 52.1862 28.2685 51.6946 27.662 51.6946H5.76457L17.8086 35.3471L28.4791 50.0998C28.6939 50.3968 29.0294 50.5545 29.3699 50.5545C29.593 50.5545 29.8182 50.4866 30.0126 50.3461C30.5042 49.9906 30.6145 49.304 30.2588 48.8126L19.9666 34.5826H45.2045C45.811 34.5826 46.3028 34.0908 46.3028 33.4843C46.3028 32.8778 45.811 32.386 45.2045 32.386H17.8165C17.8091 32.386 17.8016 32.3871 17.7941 32.3873C17.7816 32.3875 17.7691 32.3888 17.7566 32.3895C17.699 32.3926 17.6421 32.3996 17.5865 32.4117C17.5793 32.4132 17.5721 32.4139 17.5646 32.4156C17.5035 32.4299 17.4444 32.451 17.3869 32.4754C17.3748 32.4806 17.3627 32.4855 17.3506 32.4912C17.2926 32.5184 17.2375 32.5505 17.1852 32.5874C17.1813 32.5903 17.1767 32.5918 17.1727 32.5946C17.1672 32.5986 17.1633 32.6039 17.158 32.6078C17.1057 32.6471 17.0558 32.69 17.011 32.7385C17.0058 32.7442 17.0014 32.7506 16.9961 32.7565C16.9741 32.7814 16.9522 32.8062 16.9324 32.8332L2.70683 52.1418C2.70221 52.148 2.69936 52.1552 2.69496 52.1616C2.67695 52.1871 2.66245 52.2145 2.64642 52.2416C2.62731 52.2743 2.60798 52.3068 2.5926 52.3408C2.5803 52.3679 2.57107 52.3958 2.56097 52.4239C2.54735 52.4614 2.53483 52.499 2.5256 52.5374C2.51901 52.5649 2.5144 52.5928 2.51 52.6209C2.5032 52.6633 2.49902 52.7057 2.49704 52.7483C2.49661 52.7635 2.49243 52.778 2.49243 52.7934C2.49243 52.8061 2.49573 52.8175 2.49617 52.83C2.49748 52.8735 2.50254 52.9166 2.50913 52.9594C2.5133 52.9862 2.51638 53.0132 2.52231 53.0394C2.53175 53.0807 2.54581 53.1209 2.56009 53.1611C2.56888 53.1855 2.57568 53.2107 2.58601 53.2342C2.60446 53.2764 2.6284 53.3164 2.65235 53.3566C2.66355 53.375 2.67212 53.395 2.68442 53.4128C2.71429 53.4563 2.74988 53.4967 2.78634 53.5365C2.79667 53.5477 2.80502 53.5606 2.81578 53.5714C2.81622 53.5718 2.81644 53.5723 2.81688 53.5727L49.2204 99.6753L49.2206 99.6757L49.2211 99.6762L49.2257 99.6808C49.252 99.7069 49.2819 99.7265 49.31 99.7495C49.3386 99.7726 49.3656 99.7994 49.3959 99.8192C49.4273 99.8398 49.4614 99.8539 49.4943 99.871C49.5253 99.8871 49.5547 99.9066 49.5868 99.9196C49.627 99.9358 49.6692 99.9451 49.7105 99.9565C49.7373 99.9637 49.763 99.9747 49.79 99.9798C49.8592 99.9932 49.9295 100 49.9998 100C50.0701 100 50.1404 99.9932 50.2096 99.9798C50.237 99.9745 50.2632 99.9633 50.2902 99.956C50.3315 99.9446 50.373 99.9356 50.4127 99.9196C50.4448 99.9064 50.4747 99.8871 50.5059 99.8706C50.5386 99.8537 50.5727 99.8396 50.6036 99.8192C50.6322 99.8003 50.6575 99.7753 50.6845 99.7535C50.7146 99.7293 50.746 99.7085 50.7739 99.6808L97.1827 53.5729C97.1831 53.5725 97.1833 53.5721 97.1838 53.5714C97.1932 53.5622 97.2002 53.5508 97.2093 53.5411C97.2477 53.5 97.2844 53.4581 97.3151 53.4128C97.327 53.3955 97.3353 53.3761 97.3463 53.3581C97.3705 53.3175 97.3947 53.2773 97.4133 53.2344C97.4236 53.2109 97.4302 53.1859 97.439 53.1615C97.4533 53.1211 97.4674 53.0811 97.4768 53.0396C97.4827 53.0135 97.486 52.9864 97.4902 52.9594C97.4968 52.9166 97.5019 52.874 97.5034 52.8307C97.5038 52.818 97.5071 52.8063 97.5071 52.7936C97.5069 52.7773 97.503 52.763 97.5023 52.7474Z" fill="#D9B873"/>
<path d="M52.2191 93.2817C52.3518 93.334 52.4882 93.3588 52.6227 93.3588C53.06 93.3588 53.4739 93.0957 53.6443 92.664L69.2239 53.2389C69.2252 53.2362 69.2261 53.2336 69.2272 53.231L69.2408 53.1967C69.2474 53.18 69.2494 53.1631 69.2551 53.1462C69.2709 53.0989 69.2861 53.0517 69.2955 53.0032C69.301 52.9748 69.303 52.9465 69.3063 52.9182C69.3109 52.8766 69.3157 52.8353 69.3157 52.7938C69.3157 52.762 69.312 52.7312 69.3096 52.6998C69.3061 52.6607 69.303 52.622 69.2955 52.5836C69.2894 52.5524 69.2801 52.5228 69.2714 52.4924C69.2606 52.4549 69.2501 52.4178 69.2353 52.3813C69.2226 52.3499 69.2063 52.3207 69.191 52.2906C69.1743 52.2585 69.1587 52.2262 69.1385 52.1954C69.1156 52.1603 69.0886 52.1282 69.0618 52.0959C69.0469 52.0777 69.0354 52.0577 69.0192 52.0404L50.7997 32.7302C50.7924 32.7223 50.7834 32.717 50.7759 32.7096C50.7683 32.7019 50.7625 32.6926 50.7546 32.6852C50.7351 32.6667 50.7127 32.6538 50.6922 32.6371C50.6628 32.6131 50.6338 32.5887 50.6028 32.5683C50.573 32.5488 50.5422 32.5329 50.511 32.5165C50.4785 32.4993 50.4462 32.482 50.4126 32.4681C50.3799 32.455 50.3465 32.4455 50.3131 32.4356C50.2788 32.4255 50.2448 32.415 50.2096 32.4082C50.1756 32.4016 50.1411 32.3987 50.1066 32.3952C50.071 32.3917 50.0361 32.3882 50.0005 32.3882C49.966 32.3882 49.932 32.3919 49.8977 32.395C49.8619 32.3983 49.8265 32.4014 49.7912 32.4084C49.7571 32.415 49.7242 32.4251 49.6908 32.435C49.6563 32.4451 49.6223 32.455 49.5886 32.4684C49.5555 32.482 49.5238 32.4991 49.4916 32.516C49.4601 32.5325 49.4289 32.5483 49.3991 32.5681C49.3674 32.589 49.3384 32.6136 49.3086 32.6377C49.2886 32.6542 49.2664 32.6667 49.2473 32.685C49.2394 32.6924 49.2341 32.7012 49.2266 32.7087C49.2187 32.7164 49.2097 32.7219 49.202 32.73L30.9819 52.0401C30.9641 52.059 30.9518 52.0806 30.9357 52.1001C30.9107 52.1309 30.885 52.1607 30.8635 52.1939C30.8421 52.2264 30.8255 52.2605 30.8081 52.2945C30.7938 52.3226 30.7784 52.3501 30.7666 52.3793C30.7508 52.418 30.7396 52.4573 30.7284 52.4973C30.7204 52.5252 30.7119 52.5524 30.7062 52.581C30.698 52.6223 30.6943 52.664 30.691 52.706C30.6886 52.7343 30.6853 52.7622 30.6853 52.791C30.6853 52.8362 30.6899 52.8808 30.6954 52.9256C30.6985 52.9507 30.7 52.9755 30.7046 53.0003C30.7147 53.0532 30.7308 53.1046 30.7486 53.1558C30.7534 53.1694 30.7547 53.1831 30.7602 53.1967L30.771 53.2241C30.7734 53.2299 30.7754 53.236 30.778 53.2417L46.3565 92.664C46.5269 93.0957 46.9406 93.3588 47.3781 93.3588C47.5124 93.3588 47.649 93.3342 47.7815 93.2817C48.3456 93.0586 48.6223 92.4207 48.3994 91.8565L33.0597 53.0387L50.001 35.0841L66.9416 53.039L51.6012 91.8565C51.3785 92.4207 51.6553 93.0586 52.2191 93.2817Z" fill="#D9B873"/>
<path d="M49.7685 8.63902C50.3752 8.63902 50.8668 8.14718 50.8668 7.54069V1.09833C50.8668 0.491832 50.3752 0 49.7685 0C49.162 0 48.6702 0.491832 48.6702 1.09833V7.54047C48.6702 8.14718 49.1618 8.63902 49.7685 8.63902Z" fill="#D9B873"/>
<path d="M32.0015 12.596C32.2049 12.9483 32.5742 13.1452 32.9537 13.1452C33.14 13.1452 33.3289 13.0977 33.502 12.9978C34.0272 12.6944 34.2071 12.0227 33.904 11.4972L30.6828 5.91882C30.3795 5.39382 29.708 5.21369 29.1823 5.51683C28.6571 5.82019 28.4772 6.49192 28.7803 7.01736L32.0015 12.596Z" fill="#D9B873"/>
<path d="M14.5137 22.0869L20.0929 25.3076C20.2658 25.4076 20.4545 25.455 20.641 25.455C21.0208 25.455 21.3899 25.258 21.5933 24.9056C21.8966 24.3804 21.7165 23.7087 21.1911 23.4053L15.6118 20.1846C15.0863 19.881 14.4146 20.0611 14.1114 20.5868C13.8081 21.112 13.9882 21.7838 14.5137 22.0869Z" fill="#D9B873"/>
<path d="M78.8948 25.4553C79.081 25.4553 79.2697 25.4078 79.4426 25.3081L85.0232 22.0874C85.5487 21.7842 85.7288 21.1125 85.4254 20.587C85.1221 20.0616 84.4505 19.8817 83.9253 20.1848L78.3447 23.4056C77.8193 23.7087 77.6391 24.3805 77.9425 24.9059C78.1459 25.2582 78.515 25.4553 78.8948 25.4553Z" fill="#D9B873"/>
<path d="M66.0348 12.9977C66.2079 13.0977 66.3966 13.1451 66.5831 13.1451C66.9627 13.1451 67.3317 12.9483 67.5351 12.596L70.7578 7.01713C71.0614 6.49191 70.8815 5.82017 70.3563 5.51659C69.8306 5.21323 69.1593 5.39292 68.856 5.91836L65.6332 11.4972C65.3294 12.0224 65.5096 12.6944 66.0348 12.9977Z" fill="#D9B873"/>
</svg>
