<svg width="101" height="100" viewBox="0 0 101 100" fill="none" xmlns="http://www.w3.org/2000/svg">
<path d="M74.8895 88.5H14.9515C14.6055 88.5 14.2845 88.321 14.1015 88.027C13.9195 87.733 13.9025 87.365 14.0565 87.055L35.4565 44.003L34.0175 35.756C33.9665 35.465 34.0465 35.167 34.2365 34.941C34.4265 34.715 34.7065 34.585 35.0025 34.585H54.8405C55.1355 34.585 55.4165 34.715 55.6065 34.941C55.7965 35.167 55.8765 35.465 55.8255 35.756L54.3865 44.003L75.7865 87.055C75.9405 87.365 75.9235 87.733 75.7415 88.027C75.5575 88.321 75.2355 88.5 74.8895 88.5ZM16.5645 86.5H73.2755L52.4475 44.599C52.3525 44.408 52.3215 44.192 52.3585 43.982L53.6505 36.584H36.1905L37.4825 43.982C37.5195 44.192 37.4875 44.408 37.3935 44.599L16.5645 86.5Z" fill="#D9B873"/>
<path d="M66.3136 83.0221H23.5276C23.1816 83.0221 22.8606 82.8441 22.6786 82.5501C22.4956 82.2571 22.4776 81.8901 22.6306 81.5801L30.5766 65.4711C30.7446 65.1301 31.0926 64.9131 31.4736 64.9131H58.3686C58.7496 64.9131 59.0976 65.1291 59.2656 65.4711L67.2116 81.5801C67.3646 81.8901 67.3466 82.2571 67.1636 82.5501C66.9796 82.8441 66.6596 83.0221 66.3136 83.0221ZM25.1356 81.0221H64.7046L57.7456 66.9131H32.0946L25.1356 81.0221Z" fill="#D9B873"/>
<path d="M57.7554 36.583H32.0854C31.5334 36.583 31.0854 36.135 31.0854 35.583V27.02C31.0854 26.468 31.5334 26.02 32.0854 26.02H57.7554C58.3074 26.02 58.7554 26.468 58.7554 27.02V35.584C58.7554 36.136 58.3074 36.583 57.7554 36.583ZM33.0854 34.583H56.7554V28.02H33.0854V34.583Z" fill="#D9B873"/>
<path d="M50.3863 28.0202H39.4543C38.9023 28.0202 38.4543 27.5722 38.4543 27.0202V18.4502C38.4543 17.8982 38.9023 17.4502 39.4543 17.4502H50.3873C50.9393 17.4502 51.3873 17.8982 51.3873 18.4502V27.0202C51.3863 27.5722 50.9383 28.0202 50.3863 28.0202ZM40.4543 26.0202H49.3873V19.4502H40.4543V26.0202Z" fill="#D9B873"/>
<path d="M62.1614 23.7368H59.0034C58.4514 23.7368 58.0034 23.2888 58.0034 22.7368C58.0034 22.1848 58.4514 21.7368 59.0034 21.7368H62.1604C62.7124 21.7368 63.1604 22.1848 63.1604 22.7368C63.1604 23.2888 62.7134 23.7368 62.1614 23.7368Z" fill="#D9B873"/>
<path d="M65.0704 18.5952H61.9194C61.3674 18.5952 60.9194 18.1472 60.9194 17.5952C60.9194 17.0432 61.3674 16.5952 61.9194 16.5952H65.0704C65.6224 16.5952 66.0704 17.0432 66.0704 17.5952C66.0704 18.1472 65.6234 18.5952 65.0704 18.5952Z" fill="#D9B873"/>
<path d="M65.0704 28.874H61.9194C61.3674 28.874 60.9194 28.426 60.9194 27.874C60.9194 27.322 61.3674 26.874 61.9194 26.874H65.0704C65.6224 26.874 66.0704 27.322 66.0704 27.874C66.0704 28.426 65.6234 28.874 65.0704 28.874Z" fill="#D9B873"/>
<path d="M70.9906 53.3118C70.5906 53.3118 70.2286 53.0738 70.0716 52.7058L67.7496 47.2838L62.3326 44.9618C61.9646 44.8038 61.7266 44.4428 61.7266 44.0428C61.7266 43.6428 61.9646 43.2808 62.3326 43.1238L67.7496 40.8018L70.0726 35.3848C70.2296 35.0168 70.5916 34.7788 70.9916 34.7788C71.3916 34.7788 71.7536 35.0168 71.9106 35.3848L74.2326 40.8018L79.6546 43.1238C80.0226 43.2818 80.2606 43.6428 80.2606 44.0428C80.2606 44.4428 80.0226 44.8048 79.6546 44.9618L74.2326 47.2838L71.9106 52.7058C71.7526 53.0728 71.3916 53.3118 70.9906 53.3118ZM65.2646 44.0418L68.9046 45.6028C69.1406 45.7038 69.3286 45.8918 69.4296 46.1278L70.9906 49.7718L72.5506 46.1278C72.6526 45.8918 72.8406 45.7038 73.0766 45.6018L76.7206 44.0408L73.0766 42.4808C72.8406 42.3798 72.6526 42.1908 72.5516 41.9558L70.9906 38.3158L69.4296 41.9558C69.3286 42.1918 69.1406 42.3798 68.9046 42.4808L65.2646 44.0418Z" fill="#D9B873"/>
<path d="M80.1145 25.322C79.7145 25.322 79.3525 25.083 79.1955 24.716L77.5805 20.943L73.8135 19.328C73.4455 19.17 73.2075 18.809 73.2075 18.409C73.2075 18.009 73.4455 17.648 73.8135 17.49L77.5805 15.874L79.1965 12.107C79.3545 11.739 79.7155 11.501 80.1155 11.501C80.5155 11.501 80.8765 11.739 81.0345 12.107L82.6495 15.874L86.4225 17.489C86.7905 17.647 87.0285 18.008 87.0285 18.408C87.0285 18.808 86.7895 19.17 86.4225 19.327L82.6495 20.942L81.0335 24.715C80.8755 25.083 80.5145 25.322 80.1145 25.322ZM76.7445 18.408L78.7355 19.262C78.9715 19.363 79.1595 19.551 79.2605 19.787L80.1145 21.781L80.9685 19.787C81.0695 19.551 81.2585 19.362 81.4945 19.261L83.4885 18.407L81.4945 17.553C81.2585 17.452 81.0705 17.264 80.9695 17.028L80.1155 15.037L79.2615 17.028C79.1605 17.264 78.9725 17.452 78.7365 17.553L76.7445 18.408Z" fill="#D9B873"/>
<path d="M20.5465 38.1091C20.1465 38.1091 19.7855 37.8711 19.6275 37.5031L18.0115 33.7361L14.2435 32.1201C13.8755 31.9621 13.6375 31.6011 13.6375 31.2011C13.6375 30.8011 13.8755 30.4391 14.2435 30.2821L18.0115 28.6671L19.6265 24.8941C19.7845 24.5261 20.1455 24.2881 20.5455 24.2881C20.9455 24.2881 21.3075 24.5271 21.4645 24.8941L23.0795 28.6671L26.8514 30.2821C27.2194 30.4401 27.4575 30.8011 27.4575 31.2011C27.4575 31.6011 27.2194 31.9631 26.8514 32.1201L23.0785 33.7361L21.4634 37.5031C21.3084 37.8711 20.9465 38.1091 20.5465 38.1091ZM17.1765 31.2021L19.1684 32.0561C19.4044 32.1571 19.5925 32.3451 19.6935 32.5811L20.5475 34.5721L21.4015 32.5811C21.5025 32.3451 21.6905 32.1571 21.9265 32.0561L23.9205 31.2021L21.9265 30.3481C21.6905 30.2471 21.5015 30.0581 21.4005 29.8221L20.5465 27.8281L19.6925 29.8221C19.5915 30.0581 19.4025 30.2461 19.1675 30.3471L17.1765 31.2021Z" fill="#D9B873"/>
</svg>
