<svg width="101" height="100" viewBox="0 0 101 100" fill="none" xmlns="http://www.w3.org/2000/svg">
<path d="M46.515 57.4709C46.2225 57.0025 45.6055 56.8599 45.1371 57.1525C44.6687 57.4451 44.5262 58.062 44.8188 58.5304C45.3318 59.3518 46.2102 59.962 47.1972 60.3638C48.1995 60.7718 49.3972 61.0007 50.6669 61.0007C51.9366 61.0007 53.1343 60.7718 54.1366 60.3638C55.1236 59.962 56.002 59.3518 56.515 58.5304C56.8076 58.062 56.6651 57.4451 56.1967 57.1525C55.7283 56.8599 55.1113 57.0025 54.8188 57.4709C54.604 57.8147 54.1365 58.2045 53.3826 58.5114C52.644 58.8121 51.7056 59.0007 50.6669 59.0007C49.6282 59.0007 48.6898 58.8121 47.9512 58.5114C47.1973 58.2045 46.7298 57.8147 46.515 57.4709Z" fill="#D9B873"/>
<path fill-rule="evenodd" clip-rule="evenodd" d="M59.1505 11.9336C62.0349 13.6761 64.2179 16.2534 65.408 18.184C66.6623 19.1531 68.3226 20.5633 69.8679 22.1374C71.6685 23.9716 73.438 26.1518 74.1155 28.1842C74.4863 29.2968 74.4803 30.6435 74.2968 32.0044C74.1685 32.9559 73.9465 33.962 73.6666 34.9749C73.6716 35.1783 73.6145 35.3805 73.5013 35.552C73.4229 35.8165 73.341 36.0809 73.2563 36.3442C72.3143 39.2725 70.9896 42.1757 70.0526 43.9645C69.9618 44.1379 69.8257 44.2752 69.6653 44.3673C69.7041 49.4995 69.0149 54.3674 66.8161 58.5577C64.8343 62.3342 61.6698 65.4809 56.8848 67.7817C56.6982 69.4511 56.5795 71.6711 56.7469 73.5754C56.8427 74.6651 57.0264 75.5764 57.2993 76.2092C57.579 76.8578 57.8442 76.9888 57.9958 77.0119C59.7966 77.2868 61.6662 77.2545 63.4815 77.3859C66.1982 77.5825 69.5904 77.9142 73.0667 78.5809C76.5372 79.2464 80.1317 80.2531 83.2364 81.8185C86.3397 83.3831 89.0239 85.5421 90.5574 88.5458C90.7157 88.8558 90.7013 89.2258 90.5195 89.5226C90.3378 89.8195 90.0148 90.0005 89.6667 90.0005H11.6668C11.3187 90.0005 10.9956 89.8195 10.8139 89.5226C10.6322 89.2258 10.6178 88.8558 10.776 88.5458C12.3095 85.5421 14.9939 83.3831 18.0972 81.8185C21.2019 80.2531 24.7963 79.2464 28.2668 78.5809C31.7431 77.9142 35.1353 77.5825 37.852 77.3859C39.6673 77.2545 41.5375 77.2867 43.3378 77.0119C43.4893 76.9888 43.7546 76.8578 44.0343 76.2092C44.3072 75.5764 44.4909 74.6651 44.5867 73.5754C44.7541 71.6712 44.6354 69.4512 44.4488 67.7819C40.2774 65.7762 37.3337 63.1256 35.3318 59.9673C32.6667 55.7626 31.7453 50.7734 31.6716 45.48C29.4352 43.9043 28.1637 40.9346 27.7883 37.8244C27.3732 34.3858 28.007 30.4841 29.9184 27.4014C31.1747 25.3753 32.6172 23.3614 34.2408 21.4468C34.2033 21.3714 34.1747 21.29 34.1568 21.2037C33.7991 19.4804 33.493 16.8591 33.7809 14.6228C33.924 13.5105 34.2263 12.3893 34.8315 11.522C35.4723 10.6036 36.4384 10.0005 37.7306 10.0005H52.5237C54.9888 9.97779 57.2364 10.7773 59.1505 11.9336ZM35.7644 14.8781C35.5725 16.3687 35.6868 18.1267 35.9027 19.5916C38.7371 16.5986 42.0472 13.9436 45.8128 12.0005H37.7306C37.1546 12.0005 36.7758 12.2307 36.4717 12.6665C36.132 13.1533 35.8894 13.9071 35.7644 14.8781ZM72.1631 32.6552C71.1154 31.3757 69.9226 30.1444 68.8284 29.111C68.0239 28.3512 67.2607 27.6871 66.6295 27.1772C66.0262 26.69 65.4735 26.2858 65.1139 26.106C64.6199 25.8591 64.0194 26.0593 63.7724 26.5533C63.5253 27.0472 63.7256 27.6479 64.2196 27.8949C64.36 27.9651 64.7574 28.236 65.3728 28.7331C65.9603 29.2076 66.6846 29.8372 67.4552 30.565C68.8767 31.9075 70.4155 33.5462 71.5405 35.1282C71.4801 35.3286 71.4173 35.5299 71.3523 35.7317C70.8137 37.4061 70.1404 39.0804 69.4944 40.5218C69.1849 39.8656 68.7872 39.2163 68.3372 38.5854C67.1691 36.9476 65.5321 35.2719 63.7295 33.6766C60.4598 30.783 56.5387 28.0616 53.578 26.1991C55.1938 24.903 56.7603 23.7407 58.2294 22.7746C60.7624 21.1089 62.8687 20.121 64.3835 19.9209C65.5482 20.8337 67.0466 22.1185 68.4407 23.5385C70.2151 25.346 71.6956 27.2491 72.2181 28.8167C72.4473 29.5041 72.4824 30.4949 72.3148 31.7371C72.2747 32.0348 72.2237 32.3415 72.1631 32.6552ZM49.5063 29.6436C50.3238 28.9197 51.139 28.2155 51.9461 27.5385C54.9015 29.3636 59.0295 32.1879 62.4041 35.1743C64.1515 36.7207 65.6645 38.2825 66.7089 39.7468C67.0488 40.2233 67.3278 40.674 67.5479 41.0974C67.9295 47.3473 67.4676 53.012 65.0451 57.6284C63.2858 60.981 60.4496 63.8589 55.9755 66.0004C55.6752 65.9992 55.3984 66.1334 55.212 66.3515C53.8453 66.9555 52.335 67.4948 50.6668 67.9628C48.9981 67.4946 47.4878 66.9552 46.1215 66.3514C45.9351 66.1334 45.6584 65.9993 45.3583 66.0004C41.4534 64.1313 38.8 61.7034 37.0209 58.8966C34.6397 55.1398 33.75 50.5881 33.6723 45.5155C37.4583 41.2686 43.5053 34.958 49.5063 29.6436ZM48.1803 28.1464C42.4175 33.2499 36.6294 39.2443 32.7866 43.5075C32.7492 43.5031 32.7112 43.5007 32.6727 43.5005C32.5876 43.5 32.5049 43.5102 32.4261 43.5298C31.3838 42.6152 30.5753 41.16 30.1094 39.372C30.3221 39.0134 30.5508 38.6128 30.7992 38.1776C32.961 34.3902 36.6173 27.9847 44.1457 23.8784C44.6305 23.6139 44.8092 23.0065 44.5447 22.5216C44.2802 22.0368 43.6728 21.8581 43.1879 22.1226C35.8486 26.1259 31.9332 32.2124 29.6703 36.1198C29.6119 33.463 30.2408 30.6767 31.6182 28.4554C35.5972 22.0383 41.4253 15.8909 48.8621 12.7833C52.3415 11.3293 55.5032 12.0669 58.1163 13.6455C60.1776 14.8907 61.8587 16.642 62.9883 18.1748C61.2188 18.6651 59.2097 19.7363 57.1305 21.1035C54.3376 22.9402 51.2524 25.4258 48.1803 28.1464ZM50.9305 69.9651C52.3074 69.5887 53.5916 69.1641 54.7882 68.694C54.6614 70.2607 54.6091 72.0959 54.7546 73.7505C54.8577 74.9233 55.0659 76.0808 55.4628 77.0012C55.8529 77.9057 56.5352 78.8121 57.694 78.989C59.5481 79.272 61.4674 79.2453 63.3371 79.3807C66.0168 79.5746 69.3224 79.8992 72.6901 80.5451C76.0636 81.192 79.4594 82.154 82.3359 83.6043C84.6268 84.7594 86.5439 86.2012 87.8735 88.0005H13.46C14.7896 86.2012 16.7066 84.7594 18.9975 83.6043C21.874 82.154 25.2699 81.192 28.6434 80.5451C32.0112 79.8992 35.3167 79.5746 37.9965 79.3807C39.8652 79.2454 41.7854 79.272 43.6396 78.989C44.7984 78.8121 45.4808 77.9057 45.8708 77.0012C46.2677 76.0808 46.4759 74.9233 46.579 73.7505C46.7245 72.0959 46.6722 70.2608 46.5454 68.694C47.7423 69.1642 49.0265 69.5888 50.4031 69.9651C50.5757 70.0123 50.7579 70.0123 50.9305 69.9651Z" fill="#D9B873"/>
<path fill-rule="evenodd" clip-rule="evenodd" d="M80.6367 50.7571C80.5251 50.3123 80.1252 50.0005 79.6667 50.0005C79.2082 50.0005 78.8084 50.3123 78.6968 50.7571L77.1115 57.0739L72.2835 59.0768C71.9101 59.2317 71.6667 59.5962 71.6667 60.0005C71.6667 60.4047 71.9101 60.7692 72.2835 60.9241L77.1115 62.9271L78.6968 69.2439C78.8084 69.6886 79.2082 70.0005 79.6667 70.0005C80.1252 70.0005 80.5251 69.6886 80.6367 69.2439L82.2219 62.9271L87.0499 60.9241C87.4233 60.7692 87.6667 60.4047 87.6667 60.0005C87.6667 59.5962 87.4233 59.2317 87.0499 59.0768L82.2219 57.0739L80.6367 50.7571ZM78.929 58.0483L79.6667 55.1087L80.4044 58.0483C80.4814 58.3551 80.699 58.6074 80.9912 58.7286L84.057 60.0005L80.9912 61.2724C80.699 61.3936 80.4814 61.6458 80.4044 61.9526L79.6667 64.8923L78.929 61.9526C78.852 61.6458 78.6344 61.3936 78.3422 61.2724L75.2765 60.0005L78.3422 58.7286C78.6344 58.6074 78.852 58.3551 78.929 58.0483Z" fill="#D9B873"/>
<path fill-rule="evenodd" clip-rule="evenodd" d="M17.6667 35.0005C18.119 35.0005 18.515 35.304 18.6324 35.7408L19.7205 39.7873L23.0278 41.0679C23.4129 41.217 23.6667 41.5875 23.6667 42.0005C23.6667 42.4134 23.4129 42.7839 23.0278 42.933L19.7205 44.2136L18.6324 48.2601C18.515 48.6969 18.119 49.0005 17.6667 49.0005C17.2144 49.0005 16.8184 48.6969 16.701 48.2601L15.6129 44.2136L12.3056 42.933C11.9205 42.7839 11.6667 42.4134 11.6667 42.0005C11.6667 41.5875 11.9205 41.217 12.3056 41.0679L15.6129 39.7873L16.701 35.7408C16.8184 35.304 17.2144 35.0005 17.6667 35.0005ZM17.6667 39.8516L17.4126 40.7964C17.3299 41.1043 17.1053 41.3542 16.808 41.4693L15.4362 42.0005L16.808 42.5316C17.1053 42.6467 17.3299 42.8967 17.4126 43.2045L17.6667 44.1494L17.9208 43.2045C18.0035 42.8967 18.2281 42.6467 18.5254 42.5316L19.8972 42.0005L18.5254 41.4693C18.2281 41.3542 18.0035 41.1043 17.9208 40.7964L17.6667 39.8516Z" fill="#D9B873"/>
<path fill-rule="evenodd" clip-rule="evenodd" d="M28.6386 55.7653C28.5301 55.3165 28.1284 55.0005 27.6667 55.0005C27.205 55.0005 26.8034 55.3165 26.6948 55.7653L26.0805 58.3036L24.2715 59.0819C23.9045 59.2398 23.6667 59.6009 23.6667 60.0005C23.6667 60.4 23.9045 60.7612 24.2715 60.9191L26.0805 61.6973L26.6948 64.2357C26.8034 64.6844 27.205 65.0005 27.6667 65.0005C28.1284 65.0005 28.5301 64.6844 28.6386 64.2357L29.2529 61.6973L31.0619 60.9191C31.4289 60.7612 31.6667 60.4 31.6667 60.0005C31.6667 59.6009 31.4289 59.2398 31.0619 59.0819L29.2529 58.3036L28.6386 55.7653ZM27.33 59.9433C27.4592 59.8877 27.5734 59.8064 27.6667 59.7061C27.76 59.8064 27.8742 59.8877 28.0034 59.9433L28.1363 60.0005L28.0034 60.0577C27.8742 60.1133 27.76 60.1946 27.6667 60.2948C27.5734 60.1946 27.4592 60.1133 27.33 60.0577L27.1971 60.0005L27.33 59.9433Z" fill="#D9B873"/>
</svg>
