<svg width="640" height="640" viewBox="0 0 640 640" fill="none" xmlns="http://www.w3.org/2000/svg">
<g clip-path="url(#clip0_362_336)">
<path d="M320 0C143.271 0 0 143.271 0 320C0 496.729 143.271 640 320 640C496.729 640 640 496.729 640 320C639.802 143.354 496.646 0.197917 320 0ZM320 618.667C155.052 618.667 21.3333 484.948 21.3333 320C21.3333 155.052 155.052 21.3333 320 21.3333C484.948 21.3333 618.667 155.052 618.667 320C618.479 484.87 484.87 618.479 320 618.667Z" fill="url(#paint0_linear_362_336)"/>
<path d="M320 53.3335C172.724 53.3335 53.333 172.724 53.333 320C53.333 467.276 172.724 586.667 320 586.667C467.276 586.667 586.666 467.276 586.666 320C586.5 172.792 467.208 53.5002 320 53.3335ZM320 565.334C184.505 565.334 74.6663 455.495 74.6663 320C74.6663 184.505 184.505 74.6668 320 74.6668C455.495 74.6668 565.333 184.505 565.333 320C565.182 455.433 455.432 565.183 320 565.334Z" fill="url(#paint1_linear_362_336)"/>
<path d="M477.099 162.901C473.703 159.516 468.469 158.813 464.297 161.182L273.865 269.865C273.75 269.943 273.698 270.068 273.578 270.136C272.359 271.182 271.219 272.323 270.167 273.547C270.099 273.662 269.974 273.719 269.901 273.834L161.182 464.266C158.802 468.443 159.51 473.693 162.906 477.094C166.307 480.49 171.557 481.198 175.734 478.818L366.135 370.136C366.25 370.058 366.302 369.933 366.422 369.865C367.641 368.818 368.781 367.677 369.833 366.453C369.901 366.339 370.026 366.281 370.099 366.167L478.818 175.766C481.219 171.584 480.516 166.307 477.099 162.901ZM199.083 440.917L281.495 296.589L343.469 358.505L199.083 440.917ZM358.505 343.469L296.641 281.599L440.969 199.188L358.505 343.469Z" fill="url(#paint2_linear_362_336)"/>
<path d="M149.333 309.333H106.667C100.776 309.333 96 314.11 96 320C96 325.891 100.776 330.667 106.667 330.667H149.333C155.224 330.667 160 325.891 160 320C160 314.11 155.224 309.333 149.333 309.333Z" fill="url(#paint3_linear_362_336)"/>
<path d="M533.333 309.333H490.667C484.776 309.333 480 314.11 480 320C480 325.891 484.776 330.667 490.667 330.667H533.333C539.224 330.667 544 325.891 544 320C544 314.11 539.224 309.333 533.333 309.333Z" fill="url(#paint4_linear_362_336)"/>
<path d="M320 160C325.891 160 330.667 155.224 330.667 149.333V106.667C330.667 100.776 325.891 96 320 96C314.11 96 309.333 100.776 309.333 106.667V149.333C309.333 155.224 314.11 160 320 160Z" fill="url(#paint5_linear_362_336)"/>
<path d="M320 480C314.11 480 309.333 484.776 309.333 490.667V533.333C309.333 539.224 314.11 544 320 544C325.891 544 330.667 539.224 330.667 533.333V490.667C330.667 484.776 325.891 480 320 480Z" fill="url(#paint6_linear_362_336)"/>
</g>
<defs>
<linearGradient id="paint0_linear_362_336" x1="320" y1="0" x2="320" y2="640" gradientUnits="userSpaceOnUse">
<stop stop-color="#D3A745"/>
<stop offset="0.365385" stop-color="#FAF49E"/>
<stop offset="0.600962" stop-color="#F1C66E"/>
<stop offset="0.822115" stop-color="#FCEDA7"/>
<stop offset="1" stop-color="#B48638"/>
</linearGradient>
<linearGradient id="paint1_linear_362_336" x1="320" y1="53.3335" x2="320" y2="586.667" gradientUnits="userSpaceOnUse">
<stop stop-color="#D3A745"/>
<stop offset="0.365385" stop-color="#FAF49E"/>
<stop offset="0.600962" stop-color="#F1C66E"/>
<stop offset="0.822115" stop-color="#FCEDA7"/>
<stop offset="1" stop-color="#B48638"/>
</linearGradient>
<linearGradient id="paint2_linear_362_336" x1="320.008" y1="159.789" x2="320.008" y2="480.218" gradientUnits="userSpaceOnUse">
<stop stop-color="#D3A745"/>
<stop offset="0.365385" stop-color="#FAF49E"/>
<stop offset="0.600962" stop-color="#F1C66E"/>
<stop offset="0.822115" stop-color="#FCEDA7"/>
<stop offset="1" stop-color="#B48638"/>
</linearGradient>
<linearGradient id="paint3_linear_362_336" x1="128" y1="309.333" x2="128" y2="330.667" gradientUnits="userSpaceOnUse">
<stop stop-color="#D3A745"/>
<stop offset="0.365385" stop-color="#FAF49E"/>
<stop offset="0.600962" stop-color="#F1C66E"/>
<stop offset="0.822115" stop-color="#FCEDA7"/>
<stop offset="1" stop-color="#B48638"/>
</linearGradient>
<linearGradient id="paint4_linear_362_336" x1="512" y1="309.333" x2="512" y2="330.667" gradientUnits="userSpaceOnUse">
<stop stop-color="#D3A745"/>
<stop offset="0.365385" stop-color="#FAF49E"/>
<stop offset="0.600962" stop-color="#F1C66E"/>
<stop offset="0.822115" stop-color="#FCEDA7"/>
<stop offset="1" stop-color="#B48638"/>
</linearGradient>
<linearGradient id="paint5_linear_362_336" x1="320" y1="96" x2="320" y2="160" gradientUnits="userSpaceOnUse">
<stop stop-color="#D3A745"/>
<stop offset="0.365385" stop-color="#FAF49E"/>
<stop offset="0.600962" stop-color="#F1C66E"/>
<stop offset="0.822115" stop-color="#FCEDA7"/>
<stop offset="1" stop-color="#B48638"/>
</linearGradient>
<linearGradient id="paint6_linear_362_336" x1="320" y1="480" x2="320" y2="544" gradientUnits="userSpaceOnUse">
<stop stop-color="#D3A745"/>
<stop offset="0.365385" stop-color="#FAF49E"/>
<stop offset="0.600962" stop-color="#F1C66E"/>
<stop offset="0.822115" stop-color="#FCEDA7"/>
<stop offset="1" stop-color="#B48638"/>
</linearGradient>
<clipPath id="clip0_362_336">
<rect width="640" height="640" fill="white"/>
</clipPath>
</defs>
</svg>
