<svg width="512" height="512" viewBox="0 0 512 512" fill="none" xmlns="http://www.w3.org/2000/svg">
<g clip-path="url(#clip0_364_502)">
<path d="M298.667 170.667C294.14 170.667 289.799 172.465 286.599 175.665C283.398 178.866 281.6 183.207 281.6 187.733V227.558L262.579 252.936C259.954 256.434 258.771 260.807 259.276 265.152C259.781 269.496 261.935 273.481 265.293 276.284L304.188 308.71L272.282 353.374C270.8 355.45 269.803 357.831 269.363 360.343C268.923 362.855 269.051 365.433 269.739 367.889C270.427 370.345 271.656 372.615 273.336 374.534C275.017 376.452 277.106 377.969 279.45 378.974L318.908 395.895L285.551 435.925C283.003 438.985 281.605 442.84 281.6 446.822V494.933C281.6 499.46 283.398 503.801 286.599 507.001C289.799 510.202 294.14 512 298.667 512H401.067C416.903 511.98 432.084 505.68 443.282 494.482C454.48 483.284 460.78 468.103 460.8 452.267V230.4C460.772 216.051 455.585 202.191 446.185 191.35C436.786 180.508 423.8 173.41 409.6 171.349V119.338C409.609 89.3812 398.384 60.5096 378.14 38.4271C357.897 16.3445 330.108 2.65692 300.262 0.0680994C297.893 -0.141324 295.507 0.144177 293.254 0.906471C291.001 1.66876 288.932 2.89119 287.177 4.49611C285.422 6.10104 284.02 8.05338 283.06 10.2292C282.1 12.4049 281.603 14.7566 281.6 17.1348V34.2953C281.573 38.501 283.117 42.5653 285.93 45.6922C288.742 48.8191 292.621 50.7832 296.806 51.1998C313.724 52.8244 329.422 60.7154 340.819 73.323C352.215 85.9306 358.486 102.344 358.4 119.338V170.667H298.667ZM443.733 230.4V452.267C443.72 463.578 439.22 474.423 431.222 482.421C423.223 490.42 412.378 494.92 401.067 494.933H298.667V446.822L332.023 406.792C333.724 404.75 334.924 402.339 335.528 399.751C336.132 397.163 336.123 394.47 335.503 391.885C334.882 389.301 333.666 386.898 331.953 384.867C330.239 382.835 328.075 381.232 325.632 380.185L286.165 363.264L318.08 318.6C320.568 315.089 321.645 310.771 321.096 306.502C320.548 302.234 318.414 298.328 315.119 295.56L276.224 263.134L295.253 237.764C297.458 234.805 298.655 231.215 298.667 227.524V187.733H401.067C412.378 187.747 423.223 192.246 431.222 200.245C439.22 208.244 443.72 219.088 443.733 230.4ZM298.667 34.2953L298.829 17.0665C324.412 19.298 348.228 31.0399 365.576 49.9741C382.924 68.9083 392.543 93.6586 392.533 119.338V170.667H375.467V119.338C375.57 98.1407 367.752 77.6686 353.544 61.9362C339.337 46.2038 319.765 36.3459 298.667 34.2953Z" fill="url(#paint0_linear_364_502)"/>
<path d="M232.252 51.1998C236.438 50.7851 240.319 48.8219 243.134 45.6948C245.948 42.5678 247.493 38.5023 247.467 34.2953V17.1177C247.464 14.7395 246.967 12.3878 246.007 10.2121C245.047 8.03629 243.645 6.08395 241.89 4.47902C240.135 2.8741 238.065 1.65167 235.812 0.889381C233.56 0.127087 231.173 -0.158414 228.804 0.0510096C199.005 2.76659 171.289 16.4947 151.07 38.5532C130.851 60.6117 119.583 89.4159 119.467 119.338V171.349C105.266 173.409 92.281 180.508 82.8811 191.35C73.4812 202.191 68.294 216.051 68.2666 230.4V452.266C68.2869 468.103 74.5868 483.284 85.7845 494.482C96.9823 505.68 112.164 511.98 128 512H230.4C234.926 512 239.267 510.202 242.468 507.001C245.669 503.801 247.467 499.46 247.467 494.933V446.737L273.143 414.643C274.731 412.656 275.854 410.339 276.431 407.861C277.008 405.384 277.023 402.809 276.477 400.325C275.931 397.841 274.836 395.51 273.273 393.504C271.71 391.497 269.718 389.865 267.443 388.727L234.615 372.309L266.931 327.083C269.437 323.621 270.543 319.34 270.028 315.098C269.512 310.856 267.412 306.965 264.149 304.205L217.352 264.098L242.466 238.933C245.655 235.725 247.452 231.39 247.467 226.867V187.733C247.467 183.207 245.669 178.866 242.468 175.665C239.267 172.465 234.926 170.666 230.4 170.666H170.667V119.338C170.58 102.345 176.85 85.933 188.245 73.3256C199.639 60.7182 215.336 52.8264 232.252 51.1998ZM230.4 226.867L205.286 251.981C203.623 253.644 202.322 255.632 201.464 257.822C200.606 260.012 200.21 262.355 200.3 264.705C200.391 267.056 200.966 269.362 201.99 271.479C203.014 273.596 204.465 275.479 206.251 277.009L253.047 317.116L220.732 362.342C219.299 364.349 218.318 366.643 217.856 369.065C217.394 371.487 217.463 373.981 218.057 376.374C218.652 378.767 219.758 381.003 221.299 382.928C222.841 384.853 224.781 386.421 226.987 387.524L259.823 403.925L234.138 436.053C231.714 439.083 230.396 442.849 230.4 446.728V494.933H128C116.688 494.92 105.844 490.42 97.845 482.421C89.8464 474.423 85.3468 463.578 85.3333 452.266V230.4C85.3468 219.088 89.8464 208.244 97.845 200.245C105.844 192.246 116.688 187.747 128 187.733H230.4V226.867ZM136.533 170.666V119.338C136.632 93.6683 146.31 68.9595 163.672 50.0516C181.035 31.1437 204.831 19.399 230.4 17.1177L230.588 34.2526C209.455 36.2787 189.843 46.1292 175.599 61.871C161.356 77.6128 153.509 98.1094 153.6 119.338V170.666H136.533Z" fill="url(#paint1_linear_364_502)"/>
</g>
<defs>
<linearGradient id="paint0_linear_364_502" x1="359.981" y1="0.00146484" x2="359.981" y2="512" gradientUnits="userSpaceOnUse">
<stop stop-color="#D3A745"/>
<stop offset="0.365385" stop-color="#FAF49E"/>
<stop offset="0.600962" stop-color="#F1C66E"/>
<stop offset="0.822115" stop-color="#FCEDA7"/>
<stop offset="1" stop-color="#B48638"/>
</linearGradient>
<linearGradient id="paint1_linear_364_502" x1="172.571" y1="-0.015625" x2="172.571" y2="512" gradientUnits="userSpaceOnUse">
<stop stop-color="#D3A745"/>
<stop offset="0.365385" stop-color="#FAF49E"/>
<stop offset="0.600962" stop-color="#F1C66E"/>
<stop offset="0.822115" stop-color="#FCEDA7"/>
<stop offset="1" stop-color="#B48638"/>
</linearGradient>
<clipPath id="clip0_364_502">
<rect width="512" height="512" fill="white"/>
</clipPath>
</defs>
</svg>
