<svg width="512" height="512" viewBox="0 0 512 512" fill="none" xmlns="http://www.w3.org/2000/svg">
<path d="M214.095 286.437C212.702 282.339 210.383 278.582 207.233 275.432C201.824 270.023 194.634 267.044 186.985 267.044C179.336 267.044 172.146 270.022 166.738 275.431L121.344 320.826C100.346 341.824 88.7822 369.742 88.7822 399.437C88.7822 429.132 100.346 457.05 121.344 478.048C142.342 499.046 170.26 510.609 199.955 510.609C229.651 510.609 257.569 499.046 278.566 478.048L330.445 426.169C341.609 415.005 341.609 396.838 330.444 385.673C326.632 381.861 322.004 379.354 317.117 378.145C321.497 367.73 319.458 355.234 310.989 346.764C305.264 341.039 297.699 338.258 290.18 338.405C290.184 338.213 290.194 338.023 290.194 337.831C290.194 330.183 287.216 322.992 281.807 317.583C278.601 314.378 274.817 312.099 270.789 310.734L317.474 264.049C328.639 252.884 328.639 234.718 317.474 223.553C306.309 212.388 288.143 212.39 276.979 223.554L214.095 286.437ZM306.161 234.866C311.087 239.792 311.087 247.808 306.162 252.734L228.794 330.103C225.67 333.227 225.67 338.293 228.794 341.416C231.918 344.539 236.984 344.539 240.107 341.416L252.631 328.892C257.558 323.971 265.571 323.973 270.494 328.895C272.881 331.282 274.195 334.454 274.195 337.83C274.195 341.206 272.881 344.378 270.494 346.765L259.725 357.534C256.601 360.658 256.601 365.724 259.725 368.847C262.849 371.97 267.915 371.971 271.038 368.846L281.807 358.077C286.733 353.149 294.749 353.152 299.675 358.076C304.601 363.003 304.601 371.019 299.676 375.945L285.115 390.506C281.991 393.631 281.991 398.696 285.115 401.821C286.677 403.383 288.724 404.164 290.772 404.164C292.82 404.164 296.805 401.445 296.805 401.445L301.275 396.975C306.203 392.063 314.209 392.066 319.13 396.986C324.056 401.913 324.056 409.929 319.131 414.855L267.252 466.733C249.276 484.71 225.376 494.609 199.954 494.609C174.533 494.609 150.632 484.71 132.656 466.733C114.68 448.757 104.78 424.858 104.78 399.436C104.78 374.014 114.68 350.115 132.656 332.139L178.051 286.743C180.437 284.357 183.61 283.043 186.985 283.043C190.36 283.043 193.532 284.357 195.919 286.744C198.305 289.13 199.62 292.303 199.62 295.678C199.62 299.053 198.306 302.226 195.919 304.612L155.389 345.142C152.265 348.267 152.265 353.331 155.389 356.456C156.951 358.017 158.998 358.799 161.046 358.799C163.093 358.799 165.141 358.018 166.703 356.456L207.233 315.926L288.294 234.865C293.219 229.94 301.235 229.939 306.161 234.866Z" fill="url(#paint0_linear_364_489)"/>
<path d="M366 1.39111C285.495 1.39111 220 66.8861 220 147.391C220 173.549 227.001 199.214 240.248 221.612C242.498 225.415 247.404 226.675 251.206 224.426C255.009 222.177 256.269 217.271 254.02 213.468C242.231 193.534 236 170.685 236 147.391C236 75.7091 294.318 17.3911 366 17.3911C437.682 17.3911 496 75.7091 496 147.391C496 219.073 437.682 277.391 366 277.391C355.184 277.391 344.434 276.061 334.049 273.438C329.766 272.356 325.416 274.953 324.334 279.236C323.252 283.519 325.848 287.87 330.131 288.952C341.795 291.897 353.863 293.391 366 293.391C446.505 293.391 512 227.896 512 147.391C512 66.8861 446.505 1.39111 366 1.39111Z" fill="url(#paint1_linear_364_489)"/>
<path d="M285.156 200.918C286.285 201.469 287.481 201.73 288.658 201.73C291.62 201.73 294.467 200.078 295.854 197.236C309.049 170.191 335.928 153.391 366 153.391C396.071 153.391 422.949 170.19 436.145 197.233C438.082 201.204 442.872 202.852 446.843 200.915C450.814 198.977 452.462 194.188 450.524 190.217C442.912 174.617 431.139 161.43 416.477 152.081C401.406 142.471 383.952 137.392 366 137.392C348.048 137.392 330.593 142.472 315.521 152.083C300.859 161.433 289.085 174.621 281.474 190.221C279.537 194.191 281.185 198.98 285.156 200.918Z" fill="url(#paint2_linear_364_489)"/>
<path d="M344 97.3911C344 81.9521 331.439 69.3911 316 69.3911C300.561 69.3911 288 81.9521 288 97.3911C288 112.83 300.561 125.391 316 125.391C331.439 125.391 344 112.83 344 97.3911ZM304 97.3911C304 90.7741 309.383 85.3911 316 85.3911C322.617 85.3911 328 90.7741 328 97.3911C328 104.008 322.617 109.391 316 109.391C309.383 109.391 304 104.008 304 97.3911Z" fill="url(#paint3_linear_364_489)"/>
<path d="M444 97.3911C444 81.9521 431.439 69.3911 416 69.3911C400.561 69.3911 388 81.9521 388 97.3911C388 112.83 400.561 125.391 416 125.391C431.44 125.391 444 112.83 444 97.3911ZM404 97.3911C404 90.7741 409.383 85.3911 416 85.3911C422.617 85.3911 428 90.7741 428 97.3911C428 104.008 422.617 109.391 416 109.391C409.383 109.391 404 104.008 404 97.3911Z" fill="url(#paint4_linear_364_489)"/>
<path d="M212.153 221.579C202.991 226.689 192.564 229.391 182 229.391C147.813 229.391 120 201.578 120 167.391C120 133.204 147.813 105.391 182 105.391C188.809 105.391 195.497 106.486 201.879 108.644C206.063 110.059 210.604 107.814 212.02 103.629C213.435 99.4441 211.19 94.9031 207.005 93.4881C198.968 90.7701 190.555 89.3911 182 89.3911C138.991 89.3911 104 124.382 104 167.391C104 210.4 138.991 245.391 182 245.391C195.287 245.391 208.409 241.989 219.948 235.552C223.806 233.4 225.19 228.527 223.037 224.668C220.885 220.81 216.012 219.425 212.153 221.579Z" fill="url(#paint5_linear_364_489)"/>
<path d="M156 197.391H200C204.418 197.391 208 193.809 208 189.391C208 184.973 204.418 181.391 200 181.391H156C151.582 181.391 148 184.973 148 189.391C148 193.809 151.581 197.391 156 197.391Z" fill="url(#paint6_linear_364_489)"/>
<path d="M160 161.391C166.617 161.391 172 156.008 172 149.391C172 142.774 166.617 137.391 160 137.391C153.383 137.391 148 142.774 148 149.391C148 156.008 153.383 161.391 160 161.391ZM160 145.391C162.206 145.391 164 147.185 164 149.391C164 151.597 162.206 153.391 160 153.391C157.794 153.391 156 151.597 156 149.391C156 147.185 157.794 145.391 160 145.391Z" fill="url(#paint7_linear_364_489)"/>
<path d="M109.172 238.91C113.221 237.143 115.072 232.428 113.304 228.378C111.537 224.328 106.821 222.478 102.772 224.246C94.949 227.66 86.614 229.391 77.999 229.391C43.812 229.391 15.999 201.578 15.999 167.391C15.999 133.204 43.812 105.391 77.999 105.391C87.37 105.391 96.369 107.426 104.748 111.439C108.733 113.35 113.511 111.665 115.419 107.68C117.328 103.695 115.645 98.9181 111.66 97.0091C101.107 91.9541 89.782 89.3911 78 89.3911C34.991 89.3911 0 124.382 0 167.391C0 210.4 34.991 245.391 78 245.391C88.831 245.391 99.319 243.211 109.172 238.91Z" fill="url(#paint8_linear_364_489)"/>
<path d="M56 161.391C62.617 161.391 68 156.008 68 149.391C68 142.774 62.617 137.391 56 137.391C49.383 137.391 44 142.774 44 149.391C44 156.008 49.383 161.391 56 161.391ZM56 145.391C58.206 145.391 60 147.185 60 149.391C60 151.597 58.206 153.391 56 153.391C53.794 153.391 52 151.597 52 149.391C52 147.185 53.794 145.391 56 145.391Z" fill="url(#paint9_linear_364_489)"/>
<path d="M42.4047 191.465C52.1247 200.434 64.7657 205.374 77.9997 205.374C80.4387 205.374 82.8947 205.205 85.2977 204.87C89.6737 204.261 92.7277 200.22 92.1187 195.844C91.5097 191.467 87.4587 188.414 83.0927 189.023C81.4167 189.256 79.7027 189.375 77.9997 189.375C68.7997 189.375 60.0117 185.942 53.2557 179.707C50.0077 176.71 44.9457 176.914 41.9507 180.161C38.9547 183.408 39.1577 188.469 42.4047 191.465Z" fill="url(#paint10_linear_364_489)"/>
<defs>
<linearGradient id="paint0_linear_364_489" x1="213.8" y1="215.18" x2="213.8" y2="510.609" gradientUnits="userSpaceOnUse">
<stop stop-color="#D3A745"/>
<stop offset="0.365385" stop-color="#FAF49E"/>
<stop offset="0.600962" stop-color="#F1C66E"/>
<stop offset="0.822115" stop-color="#FCEDA7"/>
<stop offset="1" stop-color="#B48638"/>
</linearGradient>
<linearGradient id="paint1_linear_364_489" x1="366" y1="1.39111" x2="366" y2="293.391" gradientUnits="userSpaceOnUse">
<stop stop-color="#D3A745"/>
<stop offset="0.365385" stop-color="#FAF49E"/>
<stop offset="0.600962" stop-color="#F1C66E"/>
<stop offset="0.822115" stop-color="#FCEDA7"/>
<stop offset="1" stop-color="#B48638"/>
</linearGradient>
<linearGradient id="paint2_linear_364_489" x1="365.999" y1="137.392" x2="365.999" y2="201.73" gradientUnits="userSpaceOnUse">
<stop stop-color="#D3A745"/>
<stop offset="0.365385" stop-color="#FAF49E"/>
<stop offset="0.600962" stop-color="#F1C66E"/>
<stop offset="0.822115" stop-color="#FCEDA7"/>
<stop offset="1" stop-color="#B48638"/>
</linearGradient>
<linearGradient id="paint3_linear_364_489" x1="316" y1="69.3911" x2="316" y2="125.391" gradientUnits="userSpaceOnUse">
<stop stop-color="#D3A745"/>
<stop offset="0.365385" stop-color="#FAF49E"/>
<stop offset="0.600962" stop-color="#F1C66E"/>
<stop offset="0.822115" stop-color="#FCEDA7"/>
<stop offset="1" stop-color="#B48638"/>
</linearGradient>
<linearGradient id="paint4_linear_364_489" x1="416" y1="69.3911" x2="416" y2="125.391" gradientUnits="userSpaceOnUse">
<stop stop-color="#D3A745"/>
<stop offset="0.365385" stop-color="#FAF49E"/>
<stop offset="0.600962" stop-color="#F1C66E"/>
<stop offset="0.822115" stop-color="#FCEDA7"/>
<stop offset="1" stop-color="#B48638"/>
</linearGradient>
<linearGradient id="paint5_linear_364_489" x1="164.026" y1="89.3911" x2="164.026" y2="245.391" gradientUnits="userSpaceOnUse">
<stop stop-color="#D3A745"/>
<stop offset="0.365385" stop-color="#FAF49E"/>
<stop offset="0.600962" stop-color="#F1C66E"/>
<stop offset="0.822115" stop-color="#FCEDA7"/>
<stop offset="1" stop-color="#B48638"/>
</linearGradient>
<linearGradient id="paint6_linear_364_489" x1="178" y1="181.391" x2="178" y2="197.391" gradientUnits="userSpaceOnUse">
<stop stop-color="#D3A745"/>
<stop offset="0.365385" stop-color="#FAF49E"/>
<stop offset="0.600962" stop-color="#F1C66E"/>
<stop offset="0.822115" stop-color="#FCEDA7"/>
<stop offset="1" stop-color="#B48638"/>
</linearGradient>
<linearGradient id="paint7_linear_364_489" x1="160" y1="137.391" x2="160" y2="161.391" gradientUnits="userSpaceOnUse">
<stop stop-color="#D3A745"/>
<stop offset="0.365385" stop-color="#FAF49E"/>
<stop offset="0.600962" stop-color="#F1C66E"/>
<stop offset="0.822115" stop-color="#FCEDA7"/>
<stop offset="1" stop-color="#B48638"/>
</linearGradient>
<linearGradient id="paint8_linear_364_489" x1="58.103" y1="89.3911" x2="58.103" y2="245.391" gradientUnits="userSpaceOnUse">
<stop stop-color="#D3A745"/>
<stop offset="0.365385" stop-color="#FAF49E"/>
<stop offset="0.600962" stop-color="#F1C66E"/>
<stop offset="0.822115" stop-color="#FCEDA7"/>
<stop offset="1" stop-color="#B48638"/>
</linearGradient>
<linearGradient id="paint9_linear_364_489" x1="56" y1="137.391" x2="56" y2="161.391" gradientUnits="userSpaceOnUse">
<stop stop-color="#D3A745"/>
<stop offset="0.365385" stop-color="#FAF49E"/>
<stop offset="0.600962" stop-color="#F1C66E"/>
<stop offset="0.822115" stop-color="#FCEDA7"/>
<stop offset="1" stop-color="#B48638"/>
</linearGradient>
<linearGradient id="paint10_linear_364_489" x1="66.0131" y1="177.586" x2="66.0131" y2="205.374" gradientUnits="userSpaceOnUse">
<stop stop-color="#D3A745"/>
<stop offset="0.365385" stop-color="#FAF49E"/>
<stop offset="0.600962" stop-color="#F1C66E"/>
<stop offset="0.822115" stop-color="#FCEDA7"/>
<stop offset="1" stop-color="#B48638"/>
</linearGradient>
</defs>
</svg>
