<svg width="512" height="512" viewBox="0 0 512 512" fill="none" xmlns="http://www.w3.org/2000/svg">
<path d="M337.667 261.855C337.691 257.462 335.976 253.321 332.848 250.193L318.973 236.31C315.862 233.207 311.762 231.5 307.401 231.5H307.311C302.958 231.525 298.875 233.256 295.878 236.318L256.024 276.229L216.187 236.384C209.728 229.932 199.209 229.924 192.749 236.384L179.152 249.989C176.024 253.117 174.309 257.274 174.333 261.692C174.358 266.07 176.097 270.161 179.143 273.15L219.078 313.134L179.152 353.118C172.749 359.521 172.749 369.95 179.152 376.352L192.757 389.966C199.217 396.41 209.728 396.418 216.187 389.966L256.033 350.121L295.821 389.966C298.875 393.086 302.95 394.825 307.311 394.85H307.401C311.762 394.85 315.87 393.143 318.973 390.031L332.848 376.156C335.976 373.028 337.691 368.88 337.667 364.494C337.642 360.15 335.919 356.083 332.816 353.036L293.003 313.208L332.783 273.362C335.903 270.308 337.642 266.233 337.667 261.872V261.855ZM275.673 307.426C272.488 310.619 272.488 315.78 275.673 318.973L321.284 364.6L307.434 378.467L261.806 332.775C260.271 331.24 258.197 330.382 256.024 330.382C253.852 330.382 251.778 331.24 250.251 332.775L204.289 378.402L190.699 364.658L236.392 318.9C239.577 315.707 239.577 310.545 236.392 307.352L190.691 261.529L204.632 247.923L250.251 293.542C251.786 295.078 253.852 295.935 256.024 295.935C258.197 295.935 260.279 295.078 261.806 293.542L307.417 247.85L321.284 261.725L275.665 307.409L275.673 307.426Z" fill="url(#paint0_linear_364_445)"/>
<path d="M457.667 51.8333H402.833V39.5833C402.833 23.8217 390.535 11 375.417 11C360.298 11 348 23.8217 348 39.5833V51.8333H160V39.5833C160 23.8217 147.702 11 132.583 11C117.465 11 105.167 23.8217 105.167 39.5833V51.8333H50.3333C33.053 51.8333 19 66.4843 19 84.5V468.333C19 486.349 33.053 501 50.3333 501H457.667C474.947 501 489 486.349 489 468.333V84.5C489 66.4843 474.947 51.8333 457.667 51.8333ZM363.667 39.5833C363.667 32.8295 368.939 27.3333 375.417 27.3333C381.895 27.3333 387.167 32.8295 387.167 39.5833V80.4167C387.167 87.1705 381.895 92.6667 375.417 92.6667C368.939 92.6667 363.667 87.1705 363.667 80.4167V39.5833ZM120.833 39.5833C120.833 32.8295 126.105 27.3333 132.583 27.3333C139.062 27.3333 144.333 32.8295 144.333 39.5833V80.4167C144.333 87.1705 139.062 92.6667 132.583 92.6667C126.105 92.6667 120.833 87.1705 120.833 80.4167V39.5833ZM50.3333 68.1667H105.167V80.4167C105.167 96.1783 117.465 109 132.583 109C147.702 109 160 96.1783 160 80.4167V68.1667H348V80.4167C348 96.1783 360.298 109 375.417 109C390.535 109 402.833 96.1783 402.833 80.4167V68.1667H457.667C466.307 68.1667 473.333 75.4922 473.333 84.5V125.333H34.6667V84.5C34.6667 75.4922 41.6932 68.1667 50.3333 68.1667ZM457.667 484.667H50.3333C41.6932 484.667 34.6667 477.341 34.6667 468.333V141.667H473.333V468.333C473.333 477.341 466.307 484.667 457.667 484.667Z" fill="url(#paint1_linear_364_445)"/>
<path d="M359.447 232.921C355.723 235.461 354.759 240.54 357.299 244.273C371.166 264.608 378.5 288.438 378.5 313.175C378.5 380.721 323.546 435.675 256 435.675C188.453 435.675 133.5 380.721 133.5 313.175C133.5 245.628 188.453 190.675 256 190.675C280.72 190.675 304.543 198 324.902 211.875C328.634 214.415 333.706 213.46 336.254 209.728C338.802 206.004 337.83 200.924 334.106 198.384C311.027 182.655 284.02 174.35 256.008 174.35C179.454 174.35 117.175 236.629 117.175 313.183C117.175 389.737 179.454 452.016 256.008 452.016C332.562 452.016 394.841 389.737 394.841 313.183C394.841 285.155 386.528 258.148 370.807 235.085C368.267 231.353 363.196 230.397 359.455 232.937L359.447 232.921Z" fill="url(#paint2_linear_364_445)"/>
<defs>
<linearGradient id="paint0_linear_364_445" x1="256" y1="231.5" x2="256" y2="394.85" gradientUnits="userSpaceOnUse">
<stop stop-color="#D3A745"/>
<stop offset="0.365385" stop-color="#FAF49E"/>
<stop offset="0.600962" stop-color="#F1C66E"/>
<stop offset="0.822115" stop-color="#FCEDA7"/>
<stop offset="1" stop-color="#B48638"/>
</linearGradient>
<linearGradient id="paint1_linear_364_445" x1="254" y1="11" x2="254" y2="501" gradientUnits="userSpaceOnUse">
<stop stop-color="#D3A745"/>
<stop offset="0.365385" stop-color="#FAF49E"/>
<stop offset="0.600962" stop-color="#F1C66E"/>
<stop offset="0.822115" stop-color="#FCEDA7"/>
<stop offset="1" stop-color="#B48638"/>
</linearGradient>
<linearGradient id="paint2_linear_364_445" x1="256.008" y1="174.35" x2="256.008" y2="452.016" gradientUnits="userSpaceOnUse">
<stop stop-color="#D3A745"/>
<stop offset="0.365385" stop-color="#FAF49E"/>
<stop offset="0.600962" stop-color="#F1C66E"/>
<stop offset="0.822115" stop-color="#FCEDA7"/>
<stop offset="1" stop-color="#B48638"/>
</linearGradient>
</defs>
</svg>
