<svg width="512" height="512" viewBox="0 0 512 512" fill="none" xmlns="http://www.w3.org/2000/svg">
<path d="M509.454 311.591C506.347 304.091 499.094 299.244 490.976 299.244L429.947 299.255C429.947 299.254 429.946 299.251 429.946 299.244V25C429.946 11.7666 419.18 1 405.946 1H231.457C218.224 1 207.457 11.7666 207.457 25V92.8396C195.257 90.0024 182.551 88.5 169.5 88.5C77.1401 88.5 2 163.641 2 256C2 348.359 77.1401 423.5 169.5 423.5C185.58 423.5 201.135 421.217 215.866 416.967L304.56 505.661C308.337 509.438 313.359 511.519 318.702 511.519C324.044 511.519 329.067 509.438 332.844 505.661L505.118 333.387C510.858 327.646 512.561 319.091 509.454 311.591ZM18 256C18 172.463 85.9624 104.5 169.5 104.5C253.038 104.5 321 172.463 321 256C321 339.537 253.038 407.5 169.5 407.5C85.9624 407.5 18 339.537 18 256ZM493.805 322.072L321.53 494.348C320.511 495.366 319.321 495.519 318.702 495.519C318.083 495.519 316.893 495.366 315.873 494.347L232.654 411.127C293.799 386.144 337 326.026 337 256C337 182.51 289.425 119.925 223.457 97.4185V25C223.457 20.5889 227.046 17 231.457 17H405.946C410.357 17 413.946 20.5889 413.946 25V299.244C413.946 308.066 421.124 315.244 429.946 315.244H490.976C493.388 315.244 494.364 316.971 494.672 317.714C494.979 318.456 495.51 320.367 493.805 322.072Z" fill="url(#paint0_linear_364_477)"/>
<path d="M162.329 206.742H176.671C186.012 206.742 193.61 214.341 193.61 223.682C193.61 228.1 197.192 231.682 201.61 231.682C206.029 231.682 209.61 228.1 209.61 223.682C209.61 205.796 195.28 191.206 177.5 190.763V183.101C177.5 178.683 173.918 175.101 169.5 175.101C165.082 175.101 161.5 178.683 161.5 183.101V190.763C143.72 191.206 129.39 205.796 129.39 223.682V231.061C129.39 249.224 144.166 264 162.329 264H176.671C186.012 264 193.61 271.599 193.61 280.939V288.318C193.61 297.659 186.012 305.258 176.671 305.258H162.329C152.988 305.258 145.39 297.659 145.39 288.318V287.629C145.39 283.211 141.808 279.629 137.39 279.629C132.971 279.629 129.39 283.211 129.39 287.629V288.318C129.39 306.204 143.72 320.794 161.5 321.237V328.899C161.5 333.317 165.082 336.899 169.5 336.899C173.918 336.899 177.5 333.317 177.5 328.899V321.237C195.28 320.794 209.61 306.204 209.61 288.318V280.939C209.61 262.776 194.834 248 176.671 248H162.329C152.988 248 145.39 240.401 145.39 231.061V223.682C145.39 214.341 152.988 206.742 162.329 206.742Z" fill="url(#paint1_linear_364_477)"/>
<path d="M169.5 130.612C100.361 130.612 44.1123 186.861 44.1123 256C44.1123 325.139 100.361 381.388 169.5 381.388C238.639 381.388 294.888 325.139 294.888 256C294.888 186.861 238.639 130.612 169.5 130.612ZM169.5 365.388C109.184 365.388 60.1123 316.316 60.1123 256C60.1123 195.684 109.184 146.612 169.5 146.612C229.816 146.612 278.888 195.684 278.888 256C278.888 316.316 229.816 365.388 169.5 365.388Z" fill="url(#paint2_linear_364_477)"/>
<defs>
<linearGradient id="paint0_linear_364_477" x1="256.493" y1="1" x2="256.493" y2="511.519" gradientUnits="userSpaceOnUse">
<stop stop-color="#D3A745"/>
<stop offset="0.365385" stop-color="#FAF49E"/>
<stop offset="0.600962" stop-color="#F1C66E"/>
<stop offset="0.822115" stop-color="#FCEDA7"/>
<stop offset="1" stop-color="#B48638"/>
</linearGradient>
<linearGradient id="paint1_linear_364_477" x1="169.5" y1="175.101" x2="169.5" y2="336.899" gradientUnits="userSpaceOnUse">
<stop stop-color="#D3A745"/>
<stop offset="0.365385" stop-color="#FAF49E"/>
<stop offset="0.600962" stop-color="#F1C66E"/>
<stop offset="0.822115" stop-color="#FCEDA7"/>
<stop offset="1" stop-color="#B48638"/>
</linearGradient>
<linearGradient id="paint2_linear_364_477" x1="169.5" y1="130.612" x2="169.5" y2="381.388" gradientUnits="userSpaceOnUse">
<stop stop-color="#D3A745"/>
<stop offset="0.365385" stop-color="#FAF49E"/>
<stop offset="0.600962" stop-color="#F1C66E"/>
<stop offset="0.822115" stop-color="#FCEDA7"/>
<stop offset="1" stop-color="#B48638"/>
</linearGradient>
</defs>
</svg>
