<svg width="512" height="512" viewBox="0 0 512 512" fill="none" xmlns="http://www.w3.org/2000/svg">
<g clip-path="url(#clip0_364_353)">
<path d="M437.02 74.98C388.668 26.629 324.38 0 256 0C187.62 0 123.332 26.629 74.98 74.98C26.628 123.331 0 187.62 0 256C0 314.816 20.44 372.257 57.558 417.742C63.675 425.234 75.294 415.752 69.179 408.258C34.241 365.443 15 311.37 15 256C15 191.626 40.068 131.105 85.587 85.587C131.106 40.069 191.626 15 256 15C320.374 15 380.895 40.068 426.413 85.587C471.931 131.106 497 191.626 497 256C497 320.374 471.932 380.895 426.413 426.413C380.894 471.931 320.374 497 256 497C195.483 497 137.621 474.479 93.072 433.584C85.946 427.042 75.803 438.092 82.927 444.635C130.252 488.076 191.717 512 256 512C324.38 512 388.668 485.371 437.02 437.02C485.372 388.669 512 324.38 512 256C512 187.62 485.371 123.332 437.02 74.98Z" fill="url(#paint0_linear_364_353)"/>
<path d="M361.67 139.984L228.349 224.196C226.629 224.944 225.092 226.471 224.308 228.172L139.984 361.67C135.838 368.234 143.731 376.189 150.33 372.016L283.651 287.804C285.439 287.024 286.994 285.467 287.782 283.686L372.015 150.331C376.168 143.755 368.256 135.817 361.67 139.984ZM232.679 243.008L268.992 279.321L170.408 341.592L232.679 243.008ZM279.536 268.651L243.349 232.464L341.591 170.409L279.536 268.651Z" fill="url(#paint1_linear_364_353)"/>
<path d="M390.879 97.133C393.451 93.886 392.903 89.168 389.657 86.597C351.376 56.275 305.158 40.248 256 40.248C198.37 40.248 144.189 62.69 103.439 103.439C62.69 144.189 40.248 198.37 40.248 256C40.248 313.63 62.69 367.811 103.439 408.561C144.189 449.31 198.37 471.752 256 471.752C313.63 471.752 367.811 449.31 408.561 408.561C449.31 367.811 471.752 313.63 471.752 256C471.752 204.896 453.628 155.399 420.718 116.629C414.461 109.254 403.023 118.961 409.282 126.336C438.073 160.253 454.693 203.005 456.569 247.533H426.081C416.408 247.533 416.408 262.533 426.081 262.533H456.635C455.009 313.707 434.325 361.581 397.953 397.953C361.81 434.097 314.309 454.746 263.5 456.6V426.081C263.5 416.408 248.5 416.408 248.5 426.081V456.6C197.691 454.746 150.189 434.097 114.047 397.953C77.674 361.581 56.99 313.707 55.365 262.533H85.919C95.592 262.533 95.592 247.533 85.919 247.533H55.435C57.514 197.088 78.132 149.96 114.047 114.047C150.189 77.903 197.691 57.254 248.5 55.4V85.919C248.5 95.592 263.5 95.592 263.5 85.919V55.39C306.435 56.931 346.693 71.701 380.343 98.354C383.589 100.927 388.307 100.379 390.879 97.133Z" fill="url(#paint2_linear_364_353)"/>
</g>
<defs>
<linearGradient id="paint0_linear_364_353" x1="256" y1="0" x2="256" y2="512" gradientUnits="userSpaceOnUse">
<stop stop-color="#D3A745"/>
<stop offset="0.365385" stop-color="#FAF49E"/>
<stop offset="0.600962" stop-color="#F1C66E"/>
<stop offset="0.822115" stop-color="#FCEDA7"/>
<stop offset="1" stop-color="#B48638"/>
</linearGradient>
<linearGradient id="paint1_linear_364_353" x1="256" y1="138.827" x2="256" y2="373.174" gradientUnits="userSpaceOnUse">
<stop stop-color="#D3A745"/>
<stop offset="0.365385" stop-color="#FAF49E"/>
<stop offset="0.600962" stop-color="#F1C66E"/>
<stop offset="0.822115" stop-color="#FCEDA7"/>
<stop offset="1" stop-color="#B48638"/>
</linearGradient>
<linearGradient id="paint2_linear_364_353" x1="256" y1="40.248" x2="256" y2="471.752" gradientUnits="userSpaceOnUse">
<stop stop-color="#D3A745"/>
<stop offset="0.365385" stop-color="#FAF49E"/>
<stop offset="0.600962" stop-color="#F1C66E"/>
<stop offset="0.822115" stop-color="#FCEDA7"/>
<stop offset="1" stop-color="#B48638"/>
</linearGradient>
<clipPath id="clip0_364_353">
<rect width="512" height="512" fill="white"/>
</clipPath>
</defs>
</svg>
