<svg width="512" height="512" viewBox="0 0 512 512" fill="none" xmlns="http://www.w3.org/2000/svg">
<path d="M255.999 425.912C240.457 425.912 227.813 438.556 227.813 454.098C227.813 469.64 240.456 482.284 255.999 482.284C271.542 482.284 284.184 469.64 284.184 454.098C284.184 438.556 271.541 425.912 255.999 425.912ZM255.999 467.283C248.729 467.283 242.813 461.368 242.813 454.097C242.813 446.826 248.728 440.911 255.999 440.911C263.27 440.911 269.184 446.826 269.184 454.097C269.184 461.368 263.27 467.283 255.999 467.283Z" fill="url(#paint0_linear_364_429)"/>
<path d="M308.079 45.332C312.222 45.332 315.579 41.975 315.579 37.832C315.579 33.689 312.222 30.332 308.079 30.332H203.921C199.778 30.332 196.421 33.689 196.421 37.832C196.421 41.975 199.778 45.332 203.921 45.332H308.079Z" fill="url(#paint1_linear_364_429)"/>
<path d="M193.771 247.541C197.914 247.541 201.271 244.184 201.271 240.041V209.707C201.271 205.564 197.914 202.207 193.771 202.207C189.628 202.207 186.271 205.564 186.271 209.707V240.041C186.271 244.184 189.629 247.541 193.771 247.541Z" fill="url(#paint2_linear_364_429)"/>
<path d="M193.771 268.43C197.913 268.43 201.271 265.072 201.271 260.93C201.271 256.788 197.913 253.43 193.771 253.43C189.629 253.43 186.271 256.788 186.271 260.93C186.271 265.072 189.629 268.43 193.771 268.43Z" fill="url(#paint3_linear_364_429)"/>
<path d="M393.676 144.107C393.676 139.965 390.318 136.607 386.176 136.607C382.034 136.607 378.676 139.965 378.676 144.107C378.676 148.249 382.034 151.607 386.176 151.607C390.318 151.607 393.676 148.249 393.676 144.107Z" fill="url(#paint4_linear_364_429)"/>
<path d="M333.676 144.107C333.676 139.965 330.318 136.607 326.176 136.607C322.034 136.607 318.676 139.965 318.676 144.107C318.676 148.249 322.034 151.607 326.176 151.607C330.318 151.607 333.676 148.249 333.676 144.107Z" fill="url(#paint5_linear_364_429)"/>
<path d="M453.676 144.107C453.676 139.965 450.318 136.607 446.176 136.607C442.034 136.607 438.676 139.965 438.676 144.107C438.676 148.249 442.034 151.607 446.176 151.607C450.318 151.607 453.676 148.249 453.676 144.107Z" fill="url(#paint6_linear_364_429)"/>
<path d="M115.261 262.887C116.614 263.907 118.199 264.399 119.771 264.399C122.044 264.399 124.292 263.37 125.765 261.415L136.64 246.992L148.172 262.187C149.648 264.131 151.887 265.153 154.152 265.153C155.731 265.153 157.325 264.656 158.68 263.628C161.98 261.123 162.624 256.419 160.12 253.119L146.024 234.546L157.743 219.004C160.237 215.696 159.577 210.993 156.27 208.5C152.961 206.005 148.259 206.665 145.766 209.973L136.6 222.129L127.36 209.954C124.855 206.654 120.151 206.009 116.851 208.514C113.551 211.019 112.907 215.723 115.411 219.023L127.215 234.577L113.787 252.386C111.294 255.69 111.954 260.394 115.261 262.887Z" fill="url(#paint7_linear_364_429)"/>
<path d="M90.721 253.117L76.626 234.544L88.345 219.002C90.839 215.694 90.179 210.991 86.872 208.498C83.563 206.003 78.861 206.663 76.368 209.971L67.202 222.128L57.962 209.953C55.458 206.653 50.753 206.008 47.453 208.513C44.153 211.017 43.509 215.722 46.013 219.022L57.817 234.576L44.389 252.385C41.895 255.693 42.555 260.396 45.862 262.889C47.215 263.909 48.8 264.401 50.372 264.401C52.645 264.401 54.893 263.372 56.366 261.417L67.241 246.994L78.772 262.188C80.248 264.132 82.487 265.154 84.752 265.154C86.331 265.154 87.925 264.657 89.28 263.629C92.58 261.122 93.225 256.417 90.721 253.117Z" fill="url(#paint8_linear_364_429)"/>
<path d="M482.775 65.714H431.509V42.5C431.509 19.065 412.444 0 389.009 0H122.988C99.5533 0 80.4883 19.065 80.4883 42.5V93.324C80.4883 97.467 83.8453 100.824 87.9883 100.824C92.1303 100.824 95.4883 97.467 95.4883 93.324V42.5C95.4883 27.337 107.825 15 122.988 15H389.009C404.172 15 416.509 27.337 416.509 42.5V65.714H336.096C331.953 65.714 328.596 69.071 328.596 73.214C328.596 77.357 331.953 80.714 336.096 80.714H482.775C487.736 80.714 491.771 84.749 491.771 89.71V198.98C491.771 203.94 487.736 207.975 482.775 207.975H372.759C368.728 207.975 364.992 209.798 362.512 212.977L321.643 265.345V220.974C321.643 213.806 315.812 207.975 308.644 207.975H289.575C284.614 207.975 280.579 203.94 280.579 198.98V89.71C280.579 84.749 284.614 80.714 289.575 80.714H303.412C307.555 80.714 310.912 77.357 310.912 73.214C310.912 69.071 307.555 65.714 303.412 65.714H289.575C276.344 65.714 265.579 76.479 265.579 89.71V198.98C265.579 212.21 276.344 222.975 289.575 222.975H306.643V271.162C306.643 276.796 310.085 281.621 315.413 283.454C316.843 283.945 318.297 284.183 319.727 284.183C323.629 284.183 327.353 282.409 329.889 279.159L373.737 222.975H416.51V337.287C416.51 341.43 419.867 344.787 424.01 344.787C428.153 344.787 431.51 341.43 431.51 337.287V222.976H482.776C496.007 222.976 506.772 212.211 506.772 198.981V89.71C506.771 76.479 496.007 65.714 482.775 65.714Z" fill="url(#paint9_linear_364_429)"/>
<path d="M424.011 363.918C419.868 363.918 416.511 367.275 416.511 371.418V396.195H95.4885V314.699H138.262L182.11 370.883C184.646 374.133 188.369 375.907 192.272 375.907C193.703 375.907 195.157 375.669 196.586 375.178C201.913 373.345 205.356 368.52 205.356 362.886V314.699H222.424C235.655 314.699 246.42 303.934 246.42 290.703V181.433C246.42 168.202 235.655 157.437 222.424 157.437H95.4885V126.01C95.4885 121.868 92.1305 118.51 87.9885 118.51C83.8455 118.51 80.4885 121.868 80.4885 126.01V157.437H29.2235C15.9925 157.437 5.22754 168.202 5.22754 181.433V290.703C5.22754 303.935 15.9925 314.699 29.2235 314.699H80.4895V469.5C80.4895 492.935 99.5545 512 122.99 512H389.011C412.446 512 431.511 492.935 431.511 469.5V371.418C431.511 367.275 428.153 363.918 424.011 363.918ZM20.2275 290.703V181.433C20.2275 176.472 24.2625 172.437 29.2235 172.437H222.425C227.386 172.437 231.421 176.472 231.421 181.433V290.703C231.421 295.664 227.386 299.699 222.425 299.699H203.356C196.188 299.699 190.357 305.53 190.357 312.698V357.068L149.488 304.701C147.008 301.522 143.272 299.699 139.241 299.699H29.2235C24.2625 299.699 20.2275 295.664 20.2275 290.703ZM389.011 497H122.989C107.826 497 95.4885 484.663 95.4885 469.5V411.195H416.51V469.5C416.511 484.663 404.174 497 389.011 497Z" fill="url(#paint10_linear_364_429)"/>
<defs>
<linearGradient id="paint0_linear_364_429" x1="255.999" y1="425.912" x2="255.999" y2="482.284" gradientUnits="userSpaceOnUse">
<stop stop-color="#D3A745"/>
<stop offset="0.365385" stop-color="#FAF49E"/>
<stop offset="0.600962" stop-color="#F1C66E"/>
<stop offset="0.822115" stop-color="#FCEDA7"/>
<stop offset="1" stop-color="#B48638"/>
</linearGradient>
<linearGradient id="paint1_linear_364_429" x1="256" y1="30.332" x2="256" y2="45.332" gradientUnits="userSpaceOnUse">
<stop stop-color="#D3A745"/>
<stop offset="0.365385" stop-color="#FAF49E"/>
<stop offset="0.600962" stop-color="#F1C66E"/>
<stop offset="0.822115" stop-color="#FCEDA7"/>
<stop offset="1" stop-color="#B48638"/>
</linearGradient>
<linearGradient id="paint2_linear_364_429" x1="193.771" y1="202.207" x2="193.771" y2="247.541" gradientUnits="userSpaceOnUse">
<stop stop-color="#D3A745"/>
<stop offset="0.365385" stop-color="#FAF49E"/>
<stop offset="0.600962" stop-color="#F1C66E"/>
<stop offset="0.822115" stop-color="#FCEDA7"/>
<stop offset="1" stop-color="#B48638"/>
</linearGradient>
<linearGradient id="paint3_linear_364_429" x1="193.771" y1="253.43" x2="193.771" y2="268.43" gradientUnits="userSpaceOnUse">
<stop stop-color="#D3A745"/>
<stop offset="0.365385" stop-color="#FAF49E"/>
<stop offset="0.600962" stop-color="#F1C66E"/>
<stop offset="0.822115" stop-color="#FCEDA7"/>
<stop offset="1" stop-color="#B48638"/>
</linearGradient>
<linearGradient id="paint4_linear_364_429" x1="386.176" y1="136.607" x2="386.176" y2="151.607" gradientUnits="userSpaceOnUse">
<stop stop-color="#D3A745"/>
<stop offset="0.365385" stop-color="#FAF49E"/>
<stop offset="0.600962" stop-color="#F1C66E"/>
<stop offset="0.822115" stop-color="#FCEDA7"/>
<stop offset="1" stop-color="#B48638"/>
</linearGradient>
<linearGradient id="paint5_linear_364_429" x1="326.176" y1="136.607" x2="326.176" y2="151.607" gradientUnits="userSpaceOnUse">
<stop stop-color="#D3A745"/>
<stop offset="0.365385" stop-color="#FAF49E"/>
<stop offset="0.600962" stop-color="#F1C66E"/>
<stop offset="0.822115" stop-color="#FCEDA7"/>
<stop offset="1" stop-color="#B48638"/>
</linearGradient>
<linearGradient id="paint6_linear_364_429" x1="446.176" y1="136.607" x2="446.176" y2="151.607" gradientUnits="userSpaceOnUse">
<stop stop-color="#D3A745"/>
<stop offset="0.365385" stop-color="#FAF49E"/>
<stop offset="0.600962" stop-color="#F1C66E"/>
<stop offset="0.822115" stop-color="#FCEDA7"/>
<stop offset="1" stop-color="#B48638"/>
</linearGradient>
<linearGradient id="paint7_linear_364_429" x1="136.961" y1="206.987" x2="136.961" y2="265.153" gradientUnits="userSpaceOnUse">
<stop stop-color="#D3A745"/>
<stop offset="0.365385" stop-color="#FAF49E"/>
<stop offset="0.600962" stop-color="#F1C66E"/>
<stop offset="0.822115" stop-color="#FCEDA7"/>
<stop offset="1" stop-color="#B48638"/>
</linearGradient>
<linearGradient id="paint8_linear_364_429" x1="67.5619" y1="206.985" x2="67.5619" y2="265.154" gradientUnits="userSpaceOnUse">
<stop stop-color="#D3A745"/>
<stop offset="0.365385" stop-color="#FAF49E"/>
<stop offset="0.600962" stop-color="#F1C66E"/>
<stop offset="0.822115" stop-color="#FCEDA7"/>
<stop offset="1" stop-color="#B48638"/>
</linearGradient>
<linearGradient id="paint9_linear_364_429" x1="293.63" y1="0" x2="293.63" y2="344.787" gradientUnits="userSpaceOnUse">
<stop stop-color="#D3A745"/>
<stop offset="0.365385" stop-color="#FAF49E"/>
<stop offset="0.600962" stop-color="#F1C66E"/>
<stop offset="0.822115" stop-color="#FCEDA7"/>
<stop offset="1" stop-color="#B48638"/>
</linearGradient>
<linearGradient id="paint10_linear_364_429" x1="218.369" y1="118.51" x2="218.369" y2="512" gradientUnits="userSpaceOnUse">
<stop stop-color="#D3A745"/>
<stop offset="0.365385" stop-color="#FAF49E"/>
<stop offset="0.600962" stop-color="#F1C66E"/>
<stop offset="0.822115" stop-color="#FCEDA7"/>
<stop offset="1" stop-color="#B48638"/>
</linearGradient>
</defs>
</svg>
