<svg width="48" height="48" viewBox="0 0 48 48" fill="none" xmlns="http://www.w3.org/2000/svg">
<path d="M39.0305 0H17.988C16.3572 0 15.0304 1.32675 15.0304 2.95763V21.0423H8.96984C7.33896 21.0423 6.01221 22.3691 6.01221 24V45.0424C6.01221 46.6732 7.33896 48 8.96984 48H19.491C21.1219 48 22.4487 46.6732 22.4487 45.0424V34.4728H39.0304C40.6612 34.4728 41.988 33.146 41.988 31.5152V2.95763C41.9881 1.32675 40.6613 0 39.0305 0ZM21.0425 45.0425C21.0425 45.8979 20.3465 46.5938 19.491 46.5938H8.96984C8.11437 46.5938 7.41846 45.8979 7.41846 45.0425V43.4911H21.0425V45.0425ZM40.5818 31.5152C40.5818 32.3706 39.8859 33.0665 39.0305 33.0665H22.4488V27.7576C22.4488 27.3692 22.134 27.0544 21.7456 27.0544C21.3573 27.0544 21.0425 27.3692 21.0425 27.7576V42.0847H7.41846V25.4547H17.2365C17.6249 25.4547 17.9397 25.1399 17.9397 24.7515C17.9397 24.3632 17.6249 24.0484 17.2365 24.0484H7.41846V24C7.41846 23.1446 8.11437 22.4487 8.96984 22.4487H19.491C19.8794 22.4487 20.1942 22.1339 20.1942 21.7455C20.1942 21.3572 19.8794 21.0424 19.491 21.0424H16.4366V5.91536H40.5817V28.5575H24.7516C24.3633 28.5575 24.0485 28.8723 24.0485 29.2607C24.0485 29.649 24.3633 29.9638 24.7516 29.9638H40.5818V31.5152ZM40.5818 4.50901H16.4367V2.95763C16.4367 2.10216 17.1326 1.40625 17.988 1.40625H39.0305C39.8859 1.40625 40.5818 2.10216 40.5818 2.95763V4.50901Z" fill="#AA7755"/>
<path d="M29.2606 30.812H27.7576C27.3693 30.812 27.0544 31.1268 27.0544 31.5151C27.0544 31.9035 27.3693 32.2183 27.7576 32.2183H29.2606C29.6489 32.2183 29.9637 31.9035 29.9637 31.5151C29.9637 31.1268 29.6489 30.812 29.2606 30.812Z" fill="#AA7755"/>
<path d="M14.982 44.3394H13.479C13.0907 44.3394 12.7759 44.6542 12.7759 45.0425C12.7759 45.4308 13.0907 45.7456 13.479 45.7456H14.982C15.3703 45.7456 15.6851 45.4308 15.6851 45.0425C15.6851 44.6542 15.3703 44.3394 14.982 44.3394Z" fill="#AA7755"/>
<path d="M30.0121 2.25439H27.0061C26.6178 2.25439 26.303 2.56921 26.303 2.95752C26.303 3.34583 26.6178 3.66065 27.0061 3.66065H30.0121C30.4004 3.66065 30.7152 3.34583 30.7152 2.95752C30.7152 2.56921 30.4004 2.25439 30.0121 2.25439Z" fill="#AA7755"/>
<path d="M24 2.25439C23.6117 2.25439 23.2969 2.56921 23.2969 2.95752C23.2969 3.34583 23.6117 3.66065 24 3.66065H24.0075C24.3958 3.66065 24.7069 3.34583 24.7069 2.95752C24.7069 2.56921 24.3883 2.25439 24 2.25439Z" fill="#AA7755"/>
<path d="M30.0121 15.0303H26.2545C25.8662 15.0303 25.5514 15.3451 25.5514 15.7334C25.5514 16.1217 25.8662 16.4365 26.2545 16.4365H28.3146L13.4304 31.3208V29.2607C13.4304 28.8724 13.1156 28.5576 12.7273 28.5576C12.339 28.5576 12.0242 28.8724 12.0242 29.2607V33.0183C12.0242 33.4066 12.339 33.7214 12.7273 33.7214H16.4849C16.8732 33.7214 17.188 33.4066 17.188 33.0183C17.188 32.63 16.8732 32.3152 16.4849 32.3152H14.4248L29.309 17.431V19.491C29.309 19.8793 29.6238 20.1941 30.0121 20.1941C30.4004 20.1941 30.7152 19.8793 30.7152 19.491V15.7334C30.7152 15.3451 30.4004 15.0303 30.0121 15.0303Z" fill="#AA7755"/>
</svg>
