<svg width="48" height="48" viewBox="0 0 48 48" fill="none" xmlns="http://www.w3.org/2000/svg">
<path d="M42.2254 13.68H39.1127V12.8872C39.1127 10.6981 37.8109 8.80723 35.9491 7.9345C36.9309 7.22178 37.5782 6.05814 37.5782 4.75632C37.5782 2.58905 35.8109 0.821777 33.6436 0.821777C31.4763 0.821777 29.7091 2.58905 29.7091 4.75632C29.7091 6.06541 30.3491 7.22178 31.3382 7.9345C30.2691 8.43632 29.3891 9.26541 28.8291 10.2981C28.2691 9.26541 27.3891 8.43632 26.32 7.9345C27.3018 7.22178 27.9491 6.05814 27.9491 4.75632C27.9491 2.58905 26.1818 0.821777 24.0145 0.821777C21.8472 0.821777 20.08 2.58905 20.08 4.75632C20.08 6.06541 20.72 7.22178 21.7091 7.9345C20.64 8.43632 19.76 9.26541 19.2 10.2981C18.64 9.26541 17.76 8.43632 16.6909 7.9345C17.6727 7.22178 18.32 6.05814 18.32 4.75632C18.32 2.58905 16.5527 0.821777 14.3854 0.821777C12.2182 0.821777 10.4509 2.58905 10.4509 4.75632C10.4509 6.06541 11.0909 7.22178 12.08 7.9345C10.2109 8.80723 8.91634 10.6981 8.91634 12.8872V13.68H5.77452C5.42543 13.68 5.13452 13.9636 5.13452 14.32V17.5636C5.13452 17.9127 5.41816 18.2036 5.77452 18.2036H8.05816L20.0945 30.9963C20.1818 31.2436 20.4145 31.4181 20.6982 31.4181C21.0472 31.4181 21.3382 31.1345 21.3382 30.7781V30.6981C21.3382 30.5381 21.28 30.3781 21.1636 30.2618L9.80361 18.1963H38.1963L26.8436 30.2618C26.7345 30.3781 26.6691 30.5381 26.6691 30.6981V30.7781C26.6691 31.1272 26.9527 31.4181 27.3091 31.4181C27.5854 31.4181 27.8254 31.2436 27.9127 30.9963L39.9491 18.2036H42.2254C42.5745 18.2036 42.8654 17.92 42.8654 17.5636V14.32C42.8582 13.9709 42.5745 13.68 42.2254 13.68ZM30.9745 4.75632C30.9745 3.28723 32.1672 2.0945 33.6363 2.0945C35.1054 2.0945 36.2982 3.28723 36.2982 4.75632C36.2982 6.22541 35.1054 7.41814 33.6363 7.41814C32.1672 7.41814 30.9745 6.22541 30.9745 4.75632ZM33.6363 8.69087C35.9563 8.69087 37.84 10.5745 37.84 12.8945V13.6872H29.4763V12.8945C29.4763 12.7636 29.4691 12.64 29.4545 12.5091C29.6509 10.3709 31.4472 8.69087 33.6363 8.69087ZM21.3382 4.75632C21.3382 3.28723 22.5309 2.0945 24 2.0945C25.4691 2.0945 26.6618 3.28723 26.6618 4.75632C26.6618 6.22541 25.4691 7.41814 24 7.41814C22.5309 7.41814 21.3382 6.22541 21.3382 4.75632ZM24 8.69087C26.1891 8.69087 27.9854 10.3709 28.1818 12.5091C28.1745 12.6327 28.16 12.7636 28.16 12.8945V13.6872H19.84V12.8945C19.84 12.7636 19.8327 12.64 19.8182 12.5091C20.0145 10.3709 21.8109 8.69087 24 8.69087ZM11.7018 4.75632C11.7018 3.28723 12.8945 2.0945 14.3636 2.0945C15.8327 2.0945 17.0254 3.28723 17.0254 4.75632C17.0254 6.22541 15.8327 7.41814 14.3636 7.41814C12.8945 7.41814 11.7018 6.22541 11.7018 4.75632ZM10.1672 12.8872C10.1672 10.5745 12.0509 8.6836 14.3709 8.6836C16.56 8.6836 18.3563 10.3636 18.5527 12.5018C18.5454 12.6254 18.5309 12.7563 18.5309 12.8872V13.68H10.1672V12.8872ZM41.5854 16.9236H6.41452V14.9527H41.5927V16.9236H41.5854Z" fill="#AA7755"/>
<path d="M24 32.4509C19.9418 32.4509 16.6327 35.7527 16.6327 39.8182C16.6327 43.8764 19.9345 47.1855 24 47.1855C28.0654 47.1855 31.3672 43.8837 31.3672 39.8182C31.3672 35.76 28.0654 32.4509 24 32.4509ZM24 45.9127C20.64 45.9127 17.9054 43.1782 17.9054 39.8182C17.9054 36.4582 20.64 33.7237 24 33.7237C27.36 33.7237 30.0945 36.4582 30.0945 39.8182C30.0945 43.1782 27.36 45.9127 24 45.9127Z" fill="#AA7755"/>
<path d="M24 37.1564C24.56 37.1564 25.0109 37.6146 25.0109 38.1673C25.0109 38.5164 25.2945 38.8073 25.6509 38.8073C26.0072 38.8073 26.2909 38.5236 26.2909 38.1673C26.2909 37.1273 25.5927 36.2618 24.64 35.9855V35.52C24.64 35.1709 24.3563 34.88 24 34.88C23.6436 34.88 23.36 35.1636 23.36 35.52V35.9855C22.4072 36.2618 21.7091 37.1346 21.7091 38.1673C21.7091 39.4255 22.7345 40.4509 23.9927 40.4509C24.5527 40.4509 25.0036 40.9091 25.0036 41.4618C25.0036 42.0146 24.5454 42.4727 23.9927 42.4727C23.44 42.4727 22.9818 42.0146 22.9818 41.4618C22.9818 41.1127 22.6981 40.8218 22.3418 40.8218C21.9854 40.8218 21.7018 41.1055 21.7018 41.4618C21.7018 42.5018 22.4 43.3673 23.3527 43.6436V44.1091C23.3527 44.4582 23.6363 44.7491 23.9927 44.7491C24.3491 44.7491 24.6327 44.4655 24.6327 44.1091V43.6436C25.5854 43.3673 26.2836 42.4945 26.2836 41.4618C26.2836 40.2036 25.2581 39.1782 24 39.1782C23.44 39.1782 22.9891 38.72 22.9891 38.1673C22.9891 37.6146 23.44 37.1564 24 37.1564Z" fill="#AA7755"/>
</svg>
