<svg width="48" height="48" viewBox="0 0 48 48" fill="none" xmlns="http://www.w3.org/2000/svg">
<path d="M44.2057 17.5779L39.1509 10.9385C38.7882 10.4649 38.3216 10.0808 37.787 9.81602C37.2525 9.55119 36.6643 9.41263 36.0677 9.41099C32.0106 9.41068 23.0754 9.41121 18.9532 9.41099H11.9322C11.3358 9.41259 10.7476 9.55114 10.2131 9.81597C9.67863 10.0808 9.2121 10.4648 8.84948 10.9385L3.7943 17.5779C3.26759 18.2672 2.98798 19.1136 3.0004 19.9811C3.01282 20.8485 3.31656 21.6866 3.86279 22.3606L20.9857 43.5598C21.3513 44.0058 21.8113 44.3651 22.3326 44.6118C22.8538 44.8586 23.4233 44.9865 24 44.9865C24.5767 44.9865 25.1462 44.8585 25.6675 44.6118C26.1887 44.3651 26.6487 44.0057 27.0143 43.5597L44.1372 22.3606C44.6833 21.6865 44.9869 20.8485 44.9993 19.9811C45.0117 19.1137 44.7322 18.2673 44.2057 17.5779ZM37.9574 11.8474C38.0796 12.0766 43.7206 19.2054 43.3919 19.2313L32.3802 19.2313L30.037 10.911H36.0678C36.4334 10.912 36.7939 10.997 37.1215 11.1594C37.4491 11.3217 37.7351 11.5571 37.9574 11.8474ZM28.4788 10.911L30.8221 19.2313H17.1779L19.5212 10.911H28.4788ZM5.02953 21.418C4.69501 21.0048 4.509 20.4912 4.50136 19.9597C4.49373 19.4281 4.6649 18.9094 4.98742 18.4868L10.0426 11.8474C10.2649 11.5571 10.5509 11.3217 10.8785 11.1594C11.2061 10.997 11.5666 10.912 11.9322 10.911H17.963L15.6198 19.2313H7.49999C7.30361 19.2351 7.11657 19.3158 6.97905 19.4561C6.84152 19.5963 6.76449 19.7849 6.76449 19.9813C6.7645 20.1777 6.84155 20.3663 6.97908 20.5066C7.11661 20.6468 7.30366 20.7275 7.50004 20.7313H15.6291L22.1827 42.6471C22.1714 42.6768 5.04299 21.4114 5.02953 21.418ZM25.8475 42.6172C25.7294 42.8135 27.7752 36.1654 27.7408 36.2151C27.7939 36.0257 27.7705 35.8231 27.6756 35.6508C27.5807 35.4785 27.422 35.3504 27.2335 35.294C27.0451 35.2377 26.8421 35.2575 26.6682 35.3494C26.4943 35.4413 26.3634 35.5978 26.3038 35.7852L24 43.489L17.1945 20.7313H30.8055L27.2011 32.7851C27.1485 32.9744 27.1722 33.1767 27.2671 33.3486C27.362 33.5205 27.5206 33.6484 27.7088 33.7047C27.8969 33.761 28.0997 33.7412 28.2734 33.6497C28.4472 33.5581 28.5781 33.4021 28.6381 33.215L32.3709 20.7313H43.3572C43.2674 20.9801 43.1367 21.2121 42.9705 21.4179L25.8475 42.6172Z" fill="#AA7755"/>
<path d="M12.8972 39.0146C11.9311 38.8232 11.0436 38.3492 10.3472 37.6528C9.65079 36.9564 9.17682 36.0689 8.98537 35.1028C8.95135 34.9328 8.85949 34.7798 8.72543 34.67C8.59136 34.5601 8.42336 34.5 8.25001 34.5C8.07666 34.5 7.90866 34.5601 7.7746 34.67C7.64053 34.7798 7.54868 34.9328 7.51466 35.1028C7.32321 36.0689 6.84923 36.9564 6.15282 37.6528C5.4564 38.3492 4.56889 38.8232 3.6028 39.0146C3.43554 39.0519 3.28597 39.145 3.17878 39.2787C3.07159 39.4124 3.01318 39.5787 3.01318 39.75C3.01319 39.9214 3.07161 40.0876 3.17881 40.2213C3.28601 40.355 3.43559 40.4481 3.60285 40.4853C4.56894 40.6768 5.45643 41.1508 6.15283 41.8472C6.84924 42.5436 7.32321 43.4311 7.51466 44.3972C7.54868 44.5672 7.64053 44.7201 7.7746 44.83C7.90866 44.9399 8.07666 45 8.25001 45C8.42336 45 8.59136 44.9399 8.72543 44.83C8.85949 44.7201 8.95135 44.5672 8.98537 44.3972C9.17682 43.4311 9.65079 42.5436 10.3472 41.8472C11.0436 41.1508 11.9311 40.6768 12.8972 40.4853C13.0645 40.4481 13.2141 40.355 13.3212 40.2213C13.4284 40.0876 13.4869 39.9213 13.4869 39.75C13.4869 39.5786 13.4284 39.4124 13.3212 39.2787C13.2141 39.145 13.0645 39.0519 12.8972 39.0146ZM8.25001 42.1399C7.67953 41.1453 6.85468 40.3205 5.86012 39.75C6.85468 39.1795 7.67953 38.3547 8.25001 37.3601C8.8205 38.3547 9.64535 39.1795 10.6399 39.75C9.64535 40.3205 8.8205 41.1453 8.25001 42.1399Z" fill="#AA7755"/>
<path d="M44.3972 6.01464C43.8015 5.89658 43.2543 5.60434 42.825 5.17497C42.3956 4.74559 42.1034 4.19841 41.9853 3.60277C41.9513 3.43279 41.8594 3.27985 41.7254 3.16995C41.5913 3.06006 41.4233 3 41.2499 3C41.0766 3 40.9086 3.06006 40.7745 3.16995C40.6405 3.27985 40.5486 3.43279 40.5146 3.60277C40.3965 4.19841 40.1043 4.74559 39.6749 5.17497C39.2455 5.60434 38.6984 5.89658 38.1027 6.01464C37.9355 6.05187 37.7859 6.14502 37.6787 6.27871C37.5715 6.4124 37.5131 6.57864 37.5131 6.75001C37.5131 6.92137 37.5715 7.08761 37.6787 7.2213C37.7859 7.35498 37.9355 7.44812 38.1028 7.48534C38.6984 7.60341 39.2456 7.89566 39.6749 8.32503C40.1043 8.75441 40.3965 9.30158 40.5146 9.89721C40.5486 10.0672 40.6405 10.2201 40.7745 10.33C40.9086 10.4399 41.0766 10.5 41.2499 10.5C41.4233 10.5 41.5913 10.4399 41.7254 10.33C41.8594 10.2201 41.9513 10.0672 41.9853 9.89721C42.1034 9.30157 42.3956 8.75439 42.825 8.32502C43.2543 7.89565 43.8015 7.60341 44.3972 7.48534C44.5644 7.44812 44.714 7.35497 44.8212 7.22129C44.9284 7.0876 44.9868 6.92135 44.9868 6.74999C44.9868 6.57863 44.9284 6.41239 44.8212 6.2787C44.714 6.14501 44.5644 6.05187 44.3972 6.01464ZM41.2499 7.87682C40.9433 7.43802 40.5619 7.05659 40.1231 6.74999C40.5619 6.44339 40.9433 6.06196 41.2499 5.62316C41.5565 6.06196 41.938 6.44339 42.3768 6.74999C41.938 7.05659 41.5565 7.43802 41.2499 7.87682Z" fill="#AA7755"/>
</svg>
