<svg width="48" height="48" viewBox="0 0 48 48" fill="none" xmlns="http://www.w3.org/2000/svg">
<path fill-rule="evenodd" clip-rule="evenodd" d="M43.4064 23.5139C42.9696 23.5877 42.6747 24.0017 42.7485 24.4393C42.9225 25.4681 43.0104 26.5032 43.0104 27.5179C43.0104 33.1777 40.4877 38.2865 36.4232 41.6881C35.7133 37.0791 32.4409 33.3824 28.0956 32.0595C29.8232 30.9071 30.9655 28.9435 30.9655 26.7149C30.9655 23.172 28.0837 20.291 24.5416 20.291C20.9995 20.291 18.1177 23.172 18.1177 26.7149C18.1177 28.9435 19.2601 30.9071 20.9877 32.0595C16.6423 33.3824 13.37 37.0791 12.6601 41.6881C8.59557 38.2865 6.0729 33.1777 6.0729 27.5179C6.0729 26.5032 6.16072 25.4681 6.33481 24.4393C6.40852 24.0017 6.11367 23.5877 5.67689 23.5139C5.22991 23.4387 4.82528 23.7351 4.75079 24.1726C4.56259 25.2877 4.46692 26.4138 4.46692 27.5179C4.46692 37.3796 11.5103 45.7028 21.2144 47.3088C21.2583 47.3166 21.303 47.3197 21.3461 47.3197C21.732 47.3197 22.0723 47.0406 22.1374 46.6485C22.2103 46.2109 21.9139 45.7969 21.4763 45.7247C18.7704 45.2769 16.295 44.2538 14.1513 42.8026C14.5387 37.3532 19.0173 33.1388 24.5416 33.1388C30.066 33.1388 34.5446 37.3532 34.932 42.8026C32.7882 44.2538 30.3128 45.2769 27.6069 45.7247C27.1694 45.7969 26.873 46.2109 26.9459 46.6485C27.011 47.0406 27.3513 47.3197 27.7371 47.3197C27.7802 47.3197 27.8249 47.3166 27.8689 47.3088C37.5729 45.7028 44.6163 37.3796 44.6163 27.5179C44.6163 26.4138 44.5207 25.2877 44.3325 24.1726C44.258 23.7351 43.8486 23.4371 43.4064 23.5139ZM19.7237 26.7149C19.7237 24.0582 21.8849 21.897 24.5416 21.897C27.1984 21.897 29.3596 24.0582 29.3596 26.7149C29.3596 29.3717 27.1984 31.5329 24.5416 31.5329C21.8849 31.5329 19.7237 29.3717 19.7237 26.7149Z" fill="#AA7755"/>
<path fill-rule="evenodd" clip-rule="evenodd" d="M33.3352 7.40901C33.2404 7.1173 32.9894 6.90558 32.6867 6.86166L27.5559 6.1167L25.2614 1.46659C24.9917 0.920806 24.0915 0.920806 23.8217 1.46659L21.5272 6.1167L16.3964 6.86166C16.0937 6.90558 15.8428 7.1173 15.7479 7.40901C15.6538 7.69916 15.7322 8.0191 15.951 8.23239L19.6641 11.8505L18.7874 16.9602C18.7356 17.2629 18.8595 17.5671 19.1065 17.7459C19.3551 17.9263 19.6821 17.9529 19.9526 17.8071L24.5416 15.3934L29.1305 17.8071C29.2482 17.8698 29.3768 17.8996 29.5046 17.8996C29.6708 17.8996 29.8363 17.8479 29.9766 17.7459C30.2237 17.5671 30.3476 17.2629 30.2958 16.9602L29.4191 11.8505L33.1321 8.23239C33.3509 8.0191 33.4293 7.69916 33.3352 7.40901ZM27.9958 10.9942C27.8069 11.1793 27.7206 11.4443 27.7653 11.7063L28.4381 15.6287L24.9156 13.7765C24.798 13.7153 24.6702 13.6839 24.5416 13.6839C24.413 13.6839 24.2852 13.7153 24.1675 13.7765L20.645 15.6287L21.3179 11.7063C21.3626 11.4443 21.2763 11.1793 21.0873 10.9942L18.2376 8.21828L22.1757 7.64583C22.4377 7.60662 22.6635 7.44352 22.7803 7.2067L24.5416 3.63716L26.3028 7.2067C26.4197 7.44352 26.6455 7.60662 26.9074 7.64583L30.8455 8.21828L27.9958 10.9942Z" fill="#AA7755"/>
<path fill-rule="evenodd" clip-rule="evenodd" d="M5.32647 20.3284C5.27472 20.6311 5.39862 20.9354 5.64563 21.1141C5.895 21.2945 6.22278 21.3196 6.49175 21.1753L10.0879 19.2839L13.6841 21.1753C13.8018 21.238 13.9304 21.2678 14.0582 21.2678C14.2244 21.2678 14.3899 21.2161 14.5303 21.1141C14.7773 20.9354 14.9012 20.6311 14.8494 20.3284L14.1625 16.3244L17.0725 13.4889C17.2913 13.2756 17.3697 12.9557 17.2756 12.6655C17.1807 12.3738 16.9298 12.1621 16.6271 12.1182L12.6059 11.5347L10.8078 7.88993C10.5381 7.34415 9.63783 7.34415 9.36808 7.88993L7.56998 11.5347L3.54877 12.1182C3.24608 12.1621 2.99514 12.3738 2.90026 12.6655C2.80616 12.9557 2.88457 13.2756 3.10336 13.4889L6.01341 16.3244L5.32647 20.3284ZM5.38999 13.4748L8.21849 13.0639C8.4804 13.0247 8.70624 12.8616 8.82308 12.6247L10.0879 10.0605L11.3528 12.6247C11.4697 12.8616 11.6955 13.0247 11.9574 13.0639L14.7859 13.4748L12.7392 15.4681C12.5502 15.6532 12.464 15.9182 12.5087 16.1802L12.9917 18.9969L10.462 17.6669C10.3444 17.6058 10.2165 17.5744 10.0879 17.5744C9.95934 17.5744 9.83152 17.6058 9.7139 17.6669L7.18417 18.9969L7.66722 16.1802C7.71192 15.9182 7.62566 15.6532 7.43667 15.4681L5.38999 13.4748Z" fill="#AA7755"/>
<path fill-rule="evenodd" clip-rule="evenodd" d="M45.5345 12.1182L41.5133 11.5347L39.7152 7.88993C39.4454 7.34415 38.5452 7.34415 38.2754 7.88993L36.4773 11.5347L32.4561 12.1182C32.1534 12.1621 31.9025 12.3738 31.8076 12.6655C31.7135 12.9557 31.7919 13.2756 32.0107 13.4889L34.9208 16.3244L34.2338 20.3284C34.1821 20.6311 34.306 20.9354 34.553 21.1141C34.8016 21.2945 35.1286 21.3196 35.3991 21.1753L38.9953 19.2839L42.5915 21.1753C42.7091 21.238 42.8377 21.2678 42.9655 21.2678C43.1318 21.2678 43.2972 21.2161 43.4376 21.1141C43.6846 20.9354 43.8085 20.6311 43.7568 20.3284L43.0698 16.3244L45.9799 13.4889C46.1987 13.2756 46.2771 12.9557 46.183 12.6655C46.0881 12.3738 45.8372 12.1621 45.5345 12.1182ZM41.6466 15.4681C41.4576 15.6532 41.3713 15.9182 41.416 16.1802L41.8991 18.9969L39.3693 17.6669C39.2517 17.6058 39.1239 17.5744 38.9953 17.5744C38.8667 17.5744 38.7389 17.6058 38.6212 17.6669L36.0915 18.9969L36.5746 16.1802C36.6193 15.9182 36.533 15.6532 36.344 15.4681L34.2973 13.4748L37.1258 13.0639C37.3877 13.0247 37.6136 12.8616 37.7304 12.6247L38.9953 10.0605L40.2602 12.6247C40.377 12.8616 40.6028 13.0247 40.8648 13.0639L43.6932 13.4748L41.6466 15.4681Z" fill="#AA7755"/>
<path d="M24.5419 47.5932C24.9854 47.5932 25.3449 47.2336 25.3449 46.7902C25.3449 46.3467 24.9854 45.9872 24.5419 45.9872C24.0984 45.9872 23.7389 46.3467 23.7389 46.7902C23.7389 47.2336 24.0984 47.5932 24.5419 47.5932Z" fill="#AA7755"/>
</svg>
