<svg width="48" height="48" viewBox="0 0 48 48" fill="none" xmlns="http://www.w3.org/2000/svg">
<path d="M10.5 24C9.75827 24 9.03325 24.2199 8.41656 24.632C7.79988 25.0441 7.31923 25.6297 7.0354 26.315C6.75157 27.0002 6.67731 27.7542 6.82201 28.4816C6.9667 29.209 7.32385 29.8772 7.8483 30.4017C8.37275 30.9261 9.04093 31.2833 9.76836 31.428C10.4958 31.5727 11.2498 31.4984 11.935 31.2146C12.6202 30.9307 13.2059 30.4501 13.618 29.8334C14.03 29.2167 14.25 28.4917 14.25 27.75C14.2488 26.7558 13.8533 25.8027 13.1503 25.0997C12.4473 24.3966 11.4942 24.0012 10.5 24ZM10.5 30C10.0549 30 9.61993 29.8681 9.24992 29.6208C8.87991 29.3736 8.59152 29.0222 8.42122 28.6111C8.25092 28.1999 8.20637 27.7475 8.29318 27.3111C8.38 26.8746 8.59429 26.4737 8.90896 26.159C9.22363 25.8444 9.62454 25.6301 10.061 25.5432C10.4975 25.4564 10.9499 25.501 11.361 25.6713C11.7721 25.8416 12.1235 26.13 12.3708 26.5C12.618 26.87 12.7499 27.305 12.7499 27.75C12.7493 28.3466 12.512 28.9185 12.0902 29.3403C11.6684 29.7621 11.0965 29.9994 10.5 30ZM17.25 32.25C16.5083 32.25 15.7832 32.4699 15.1666 32.882C14.5499 33.2941 14.0692 33.8797 13.7854 34.565C13.5016 35.2502 13.4273 36.0042 13.572 36.7316C13.7167 37.459 14.0739 38.1272 14.5983 38.6517C15.1227 39.1761 15.7909 39.5333 16.5184 39.678C17.2458 39.8227 17.9998 39.7484 18.685 39.4646C19.3702 39.1807 19.9559 38.7001 20.368 38.0834C20.78 37.4667 21 36.7417 21 36C20.9988 35.0058 20.6033 34.0527 19.9003 33.3497C19.1973 32.6466 18.2442 32.2512 17.25 32.25ZM17.25 38.25C16.8049 38.25 16.3699 38.1181 15.9999 37.8708C15.6299 37.6236 15.3415 37.2722 15.1712 36.8611C15.0009 36.4499 14.9564 35.9975 15.0432 35.5611C15.13 35.1246 15.3443 34.7237 15.659 34.409C15.9736 34.0944 16.3745 33.8801 16.811 33.7932C17.2475 33.7064 17.6999 33.751 18.111 33.9213C18.5221 34.0916 18.8735 34.38 19.1208 34.75C19.368 35.12 19.5 35.555 19.5 36C19.4993 36.5966 19.262 37.1685 18.8402 37.5903C18.4184 38.0121 17.8465 38.2494 17.25 38.25ZM12.7499 21C13.4916 21 14.2167 20.7801 14.8333 20.368C15.45 19.956 15.9307 19.3703 16.2145 18.6851C16.4983 17.9999 16.5726 17.2459 16.4279 16.5184C16.2832 15.791 15.926 15.1228 15.4016 14.5984C14.8772 14.0739 14.209 13.7168 13.4815 13.5721C12.7541 13.4274 12.0001 13.5016 11.3149 13.7855C10.6297 14.0693 10.044 14.5499 9.63194 15.1666C9.21988 15.7833 8.99995 16.5083 8.99995 17.25C9.00112 18.2442 9.39658 19.1974 10.0996 19.9004C10.8026 20.6034 11.7557 20.9988 12.7499 21ZM12.7499 15C13.195 15 13.63 15.132 14 15.3792C14.37 15.6264 14.6584 15.9778 14.8287 16.389C14.999 16.8001 15.0435 17.2525 14.9567 17.689C14.8699 18.1254 14.6556 18.5263 14.3409 18.841C14.0263 19.1557 13.6254 19.37 13.1889 19.4568C12.7524 19.5436 12.3 19.499 11.8889 19.3287C11.4778 19.1584 11.1264 18.8701 10.8791 18.5C10.6319 18.13 10.5 17.695 10.5 17.25C10.5006 16.6535 10.7379 16.0816 11.1597 15.6597C11.5815 15.2379 12.1534 15.0007 12.7499 15ZM22.5 15.75C23.2416 15.75 23.9667 15.5301 24.5833 15.118C25.2 14.706 25.6807 14.1203 25.9645 13.4351C26.2483 12.7499 26.3226 11.9959 26.1779 11.2684C26.0332 10.541 25.676 9.87281 25.1516 9.34836C24.6272 8.82392 23.959 8.46676 23.2315 8.32207C22.5041 8.17737 21.7501 8.25164 21.0649 8.53546C20.3797 8.81929 19.794 9.29994 19.3819 9.91663C18.9699 10.5333 18.75 11.2583 18.75 12C18.7511 12.9942 19.1466 13.9474 19.8496 14.6504C20.5526 15.3534 21.5057 15.7488 22.5 15.75ZM22.5 9.75001C22.945 9.75001 23.38 9.88197 23.75 10.1292C24.12 10.3764 24.4084 10.7278 24.5787 11.139C24.749 11.5501 24.7935 12.0025 24.7067 12.439C24.6199 12.8754 24.4056 13.2763 24.0909 13.591C23.7763 13.9057 23.3754 14.12 22.9389 14.2068C22.5024 14.2936 22.05 14.249 21.6389 14.0787C21.2278 13.9084 20.8764 13.6201 20.6291 13.25C20.3819 12.88 20.25 12.445 20.25 12C20.2506 11.4035 20.4879 10.8316 20.9097 10.4097C21.3315 9.98793 21.9034 9.75066 22.5 9.75001ZM46.0224 3.47755C44.0988 1.55394 38.3625 6.00084 34.8432 9.30805C32.357 7.19999 29.3986 5.72331 26.2195 5.00351C23.0404 4.2837 19.7345 4.34205 16.5827 5.1736C13.431 6.00515 10.5266 7.58531 8.11635 9.77979C5.70612 11.9743 3.86131 14.7182 2.73871 17.7784C1.61611 20.8386 1.24891 24.1246 1.6683 27.3571C2.0877 30.5896 3.2813 33.673 5.14766 36.3454C7.01403 39.0178 9.49798 41.2001 12.3884 42.7069C15.2789 44.2136 18.4904 45.0003 21.75 45C23.8886 45 25.5681 44.2661 26.3591 42.9859C26.8564 42.1817 27.2277 40.7783 26.1708 38.6646C25.7956 37.9806 25.5956 37.2142 25.5888 36.4341C25.5821 35.6539 25.7687 34.8843 26.132 34.1939C26.9179 32.9224 28.5146 32.25 30.7499 32.25C36.3127 32.25 41.9999 31.3587 41.9999 24.75C41.9957 21.4376 41.1789 18.1767 39.6214 15.2533C42.9537 11.8257 48.0594 5.51597 46.0224 3.47755ZM44.9619 4.5381C45.4314 5.04421 43.6706 9.09083 38.1225 14.6382C36.774 15.9917 35.3444 17.2619 33.8417 18.4418C33.1285 17.3217 32.1783 16.3715 31.0581 15.6582C32.2381 14.1555 33.5083 12.726 34.8618 11.3775C40.4099 5.82936 44.4572 4.07008 44.9619 4.5381ZM28.5938 19.4159C29.049 18.5249 29.5728 17.6705 30.1604 16.8607C31.1689 17.4821 32.0178 18.3311 32.6393 19.3396C31.8294 19.9272 30.9751 20.451 30.084 20.9062C29.7115 20.2991 29.2009 19.7885 28.5938 19.4159ZM29.2499 23.25C29.2499 25.0239 27.402 27 24.75 27C23.131 27.0701 21.5449 26.5283 20.3071 25.4824C21.8942 25.1389 22.6083 23.7979 23.2097 22.6692C24.0087 21.1692 24.583 20.25 26.2499 20.25C27.0454 20.2508 27.808 20.5671 28.3704 21.1296C28.9328 21.692 29.2492 22.4546 29.2499 23.25ZM30.7499 30.75C27.2351 30.75 25.6047 32.1936 24.8562 33.405C24.3528 34.3113 24.0865 35.3301 24.0817 36.3667C24.077 37.4034 24.3341 38.4245 24.8291 39.3354C25.4296 40.5359 25.5153 41.499 25.0832 42.1977C24.5793 43.013 23.3334 43.5 21.75 43.5C18.7355 43.505 15.7644 42.783 13.0883 41.3955C10.4123 40.0079 8.1102 37.9955 6.37728 35.529C4.64435 33.0625 3.53166 30.2146 3.13351 27.2266C2.73536 24.2386 3.06349 21.1986 4.0901 18.3644C5.11671 15.5302 6.81152 12.9853 9.03087 10.9454C11.2502 8.90552 13.9287 7.43079 16.8392 6.64623C19.7497 5.86168 22.8065 5.79042 25.7504 6.43851C28.6943 7.0866 31.4386 8.43492 33.7506 10.3692C30.7126 13.4146 28.3271 16.5176 27.2008 18.8532C26.8884 18.7851 26.5697 18.7505 26.2499 18.75C23.5971 18.75 22.6486 20.532 21.8862 21.9639C21.0666 23.5027 20.5605 24.2901 18.873 24.0103C18.7365 23.9876 18.5965 24.003 18.4683 24.055C18.3401 24.1069 18.2287 24.1933 18.1466 24.3046C18.0644 24.4159 18.0146 24.5477 18.0027 24.6855C17.9908 24.8233 18.0172 24.9617 18.0791 25.0855C18.1486 25.2246 19.8427 28.5 24.75 28.5C28.3388 28.5 30.7499 25.7857 30.7499 23.25C30.7494 22.9303 30.7148 22.6115 30.6467 22.2991C33.5437 20.7131 36.1919 18.7101 38.5065 16.3542C39.8148 18.9597 40.4973 21.8345 40.4999 24.75C40.4999 29.0676 37.7666 30.75 30.7499 30.75Z" fill="#AA7755"/>
</svg>
