<svg width="22" height="22" viewBox="0 0 22 22" fill="none" xmlns="http://www.w3.org/2000/svg">
<g clip-path="url(#clip0_5_618)">
<path fill-rule="evenodd" clip-rule="evenodd" d="M11 0C4.93281 0 0 4.93281 0 11C0 17.0672 4.93281 22 11 22C17.0672 22 22 17.0672 22 11C22 4.93281 17.0672 0 11 0Z" fill="#AC8164"/>
<path fill-rule="evenodd" clip-rule="evenodd" d="M16.3196 7.29189C16.586 7.5583 16.586 7.99658 16.3196 8.26299L9.87427 14.7083C9.74106 14.8415 9.56489 14.9103 9.38872 14.9103C9.21255 14.9103 9.03638 14.8415 8.90317 14.7083L5.68052 11.4856C5.41411 11.2192 5.41411 10.781 5.68052 10.5146C5.94692 10.2481 6.38521 10.2481 6.65161 10.5146L9.38872 13.2517L15.3485 7.29189C15.6149 7.02119 16.0532 7.02119 16.3196 7.29189Z" fill="#443022"/>
</g>
<defs>
<clipPath id="clip0_5_618">
<rect width="22" height="22" fill="white"/>
</clipPath>
</defs>
</svg>
