<svg width="154" height="40" viewBox="0 0 154 40" fill="none" xmlns="http://www.w3.org/2000/svg">
<mask id="mask0_5_343" style="mask-type:luminance" maskUnits="userSpaceOnUse" x="0" y="0" width="36" height="40">
<path d="M35.7406 0H0V40H35.7406V0Z" fill="white"/>
</mask>
<g mask="url(#mask0_5_343)">
<path d="M17.0032 0.0808916C17.5497 -0.0268199 18.1124 -0.026823 18.6589 0.0808916H18.7735V0.105119C19.1861 0.198229 19.5881 0.353197 19.9653 0.57016L33.528 8.43118C34.8497 9.19554 35.6636 10.6088 35.6621 12.1375V27.8424C35.6635 29.3713 34.8497 30.7844 33.528 31.5488L19.9653 39.3926C18.6465 40.1635 17.0156 40.1635 15.6969 39.3925L2.1342 31.5315C0.812377 30.7671 -0.00143983 29.3539 1.91245e-06 27.8252V12.1375C-0.00135727 10.6088 0.812377 9.19563 2.1342 8.43118L15.6969 0.57016C16.1075 0.333946 16.5475 0.17117 16.9986 0.0817595V0.0808916H17.0032ZM16.9986 1.86791C16.8471 1.9206 16.6993 1.98796 16.5575 2.07L2.97762 9.91376C2.19045 10.369 1.70501 11.2099 1.70394 12.1203V27.8252C1.69783 28.7376 2.18512 29.5819 2.97762 30.0318L16.5402 37.8756C17.3296 38.3433 18.3091 38.3499 19.1047 37.8927L32.6673 30.049C33.4598 29.5991 33.9472 28.7547 33.941 27.8423V12.1375C33.9399 11.2272 33.4546 10.3862 32.6673 9.93098L19.122 2.07C19.0092 2.00479 18.8927 1.94883 18.7735 1.90215V16.206C20.3987 16.6345 21.5972 18.1165 21.5972 19.8788C21.5972 21.9764 19.8995 23.6768 17.8053 23.6768C15.7112 23.6768 14.0136 21.9764 14.0135 19.8788C14.0135 18.0586 15.2919 16.5376 16.9986 16.1673V1.86791ZM17.8053 17.8586C16.6914 17.8586 15.7884 18.7632 15.7884 19.8788C15.7885 20.9945 16.6914 21.8991 17.8053 21.8991C18.9193 21.8991 19.8224 20.9945 19.8224 19.8788C19.8224 18.7632 18.9193 17.8586 17.8053 17.8586Z" fill="url(#paint0_linear_5_343)"/>
</g>
<path d="M48.1383 5.53263L48.8321 5.57895V16.5326C48.8321 17.3508 49.0017 17.9993 49.3409 18.4779C49.6801 18.9565 50.1503 19.1958 50.7516 19.1958C50.7824 19.1958 50.7979 19.2421 50.7979 19.3347C50.7979 19.4274 50.7824 19.4737 50.7516 19.4737C50.3199 19.4737 49.9884 19.466 49.7572 19.4505L48.5084 19.4274L47.0745 19.4505C46.8125 19.466 46.4347 19.4737 45.9413 19.4737C45.8951 19.4737 45.872 19.4274 45.872 19.3347C45.872 19.2421 45.8951 19.1958 45.9413 19.1958C46.6197 19.1958 47.1516 18.9565 47.537 18.4779C47.9379 17.9993 48.1383 17.3508 48.1383 16.5326V5.53263ZM59.9327 19.8211C59.9327 19.8674 59.8942 19.8982 59.8171 19.9137C59.7554 19.9292 59.7091 19.9214 59.6783 19.8905L48.2771 6.89895C47.7375 6.2814 47.275 5.85684 46.8895 5.62526C46.504 5.39368 46.1109 5.27789 45.7101 5.27789C45.6793 5.27789 45.6638 5.23158 45.6638 5.13895C45.6638 5.04632 45.6793 5 45.7101 5L46.6814 5.02316C46.8818 5.0386 47.1747 5.04632 47.5602 5.04632L49.3178 5.02316C49.5336 5.00772 49.7958 5 50.1041 5C50.2274 5 50.3199 5.03087 50.3816 5.09263C50.4433 5.15439 50.5511 5.28561 50.7053 5.48632C50.9674 5.8414 51.1524 6.08071 51.2604 6.20421L59.7477 16L59.9327 19.8211ZM59.9327 19.8211L59.2621 19.1263V7.96421C59.2621 7.13053 59.0925 6.47439 58.7533 5.99579C58.4141 5.51719 57.9439 5.27789 57.3426 5.27789C57.3118 5.27789 57.2963 5.23158 57.2963 5.13895C57.2963 5.04632 57.3118 5 57.3426 5L58.337 5.02316C58.8303 5.05403 59.2466 5.06947 59.5858 5.06947C59.8942 5.06947 60.3259 5.05403 60.8809 5.02316L61.9216 5C61.9524 5 61.9678 5.04632 61.9678 5.13895C61.9678 5.23158 61.9524 5.27789 61.9216 5.27789C61.3049 5.27789 60.8192 5.52492 60.4646 6.01895C60.1101 6.49755 59.9327 7.14597 59.9327 7.96421V19.8211ZM65.0055 19.4737C64.9592 19.4737 64.9361 19.4274 64.9361 19.3347C64.9361 19.2421 64.9592 19.1958 65.0055 19.1958C65.4989 19.1958 65.8535 19.1572 66.0693 19.08C66.3006 19.0028 66.4548 18.8561 66.5318 18.64C66.609 18.4084 66.6475 18.0611 66.6475 17.5979V6.87579C66.6475 6.41263 66.609 6.07298 66.5318 5.85684C66.4548 5.64071 66.3006 5.49403 66.0693 5.41684C65.838 5.32421 65.4835 5.27789 65.0055 5.27789C64.9592 5.27789 64.9361 5.23158 64.9361 5.13895C64.9361 5.04632 64.9592 5 65.0055 5H74.811C74.9652 5 75.0423 5.06947 75.0423 5.20842L75.0885 8.28842C75.0885 8.31929 75.0423 8.34245 74.9498 8.35789C74.8727 8.37334 74.8265 8.35789 74.811 8.31158C74.5644 7.41614 74.1481 6.75228 73.5622 6.32C72.9764 5.88772 72.2055 5.67158 71.2496 5.67158H70.5558C70.0933 5.67158 69.7542 5.77193 69.5382 5.97263C69.3224 6.17334 69.2145 6.48211 69.2145 6.89895V17.5053C69.2145 17.9529 69.2993 18.2849 69.4689 18.5011C69.6385 18.7172 69.9083 18.8253 70.2783 18.8253H71.0414C72.244 18.8253 73.2076 18.5782 73.9322 18.0842C74.6569 17.5902 75.1888 16.826 75.5279 15.7916C75.5279 15.7607 75.5588 15.7453 75.6204 15.7453C75.6667 15.7453 75.7053 15.7607 75.7361 15.7916C75.7823 15.8071 75.8055 15.8224 75.8055 15.8379C75.6514 17.0421 75.5742 18.1382 75.5742 19.1263C75.5742 19.2498 75.5511 19.3424 75.5048 19.4042C75.4586 19.4505 75.3661 19.4737 75.2273 19.4737H65.0055ZM73.9322 14.3095C73.9322 13.6765 73.6856 13.1824 73.1922 12.8274C72.7143 12.4568 72.0205 12.2716 71.1108 12.2716H67.9888V11.6232H71.1339C72.0282 11.6232 72.7143 11.4687 73.1922 11.16C73.6702 10.8513 73.9091 10.4189 73.9091 9.86316C73.9091 9.81684 73.9477 9.79368 74.0247 9.79368C74.1172 9.79368 74.1635 9.81684 74.1635 9.86316L74.1404 11.9474L74.1635 13.0589C74.1944 13.5839 74.2097 14.0007 74.2097 14.3095C74.2097 14.3403 74.1635 14.3558 74.071 14.3558C73.9785 14.3558 73.9322 14.3403 73.9322 14.3095ZM88.8662 8.19579C89.2825 7.50105 89.4906 6.90666 89.4906 6.41263C89.4906 6.04211 89.375 5.76421 89.1437 5.57895C88.9279 5.37824 88.6118 5.27789 88.1956 5.27789C88.1493 5.27789 88.1262 5.23158 88.1262 5.13895C88.1262 5.04632 88.1493 5 88.1956 5L89.4213 5.02316C90.1305 5.05403 90.7626 5.06947 91.3176 5.06947C91.5797 5.06947 91.8958 5.05403 92.2658 5.02316L93.1215 5C93.1523 5 93.1677 5.04632 93.1677 5.13895C93.1677 5.23158 93.1523 5.27789 93.1215 5.27789C92.6435 5.27789 92.0577 5.57895 91.3639 6.18105C90.6701 6.76772 90.0533 7.50877 89.5138 8.40421L86.5073 13.4295L86.0217 13.0358L88.8662 8.19579ZM81.1652 7.66316C80.5947 6.76772 80.1168 6.15018 79.7314 5.81053C79.3613 5.45544 79.0452 5.27789 78.7832 5.27789C78.7369 5.27789 78.7138 5.23158 78.7138 5.13895C78.7138 5.04632 78.7369 5 78.7832 5L79.5001 5.02316C79.8393 5.05403 80.0782 5.06947 80.217 5.06947C80.7566 5.06947 81.5352 5.05403 82.5528 5.02316L84.0791 5C84.1099 5 84.1253 5.04632 84.1253 5.13895C84.1253 5.23158 84.1099 5.27789 84.0791 5.27789C83.817 5.27789 83.6089 5.33965 83.4547 5.46316C83.3159 5.58666 83.2465 5.74877 83.2465 5.94947C83.2465 6.19649 83.3545 6.48982 83.5703 6.82947L86.9005 12.0863L84.6804 13.1284L81.1652 7.66316ZM87.1086 12.0863V17.5979C87.1086 18.0765 87.1472 18.4239 87.2243 18.64C87.3013 18.8561 87.4479 19.0028 87.6637 19.08C87.8949 19.1572 88.2573 19.1958 88.7506 19.1958C88.7969 19.1958 88.82 19.2421 88.82 19.3347C88.82 19.4274 88.7969 19.4737 88.7506 19.4737C88.2418 19.4737 87.841 19.466 87.548 19.4505L85.8136 19.4274L84.1022 19.4505C83.7939 19.466 83.3776 19.4737 82.8534 19.4737C82.8226 19.4737 82.8071 19.4274 82.8071 19.3347C82.8071 19.2421 82.8226 19.1958 82.8534 19.1958C83.3467 19.1958 83.7091 19.1572 83.9403 19.08C84.1716 19.0028 84.3258 18.8561 84.4029 18.64C84.4954 18.4084 84.5416 18.0611 84.5416 17.5979V12.2947L87.1086 12.0863ZM107.393 6.92211C107.393 6.45895 107.347 6.11929 107.254 5.90316C107.162 5.67158 106.985 5.50947 106.722 5.41684C106.461 5.32421 106.044 5.27789 105.474 5.27789C105.427 5.27789 105.404 5.23158 105.404 5.13895C105.404 5.04632 105.427 5 105.474 5L106.607 5.02316C107.378 5.05403 108.072 5.06947 108.688 5.06947C109.104 5.06947 109.698 5.05403 110.47 5.02316L111.764 5C111.81 5 111.833 5.04632 111.833 5.13895C111.833 5.23158 111.81 5.27789 111.764 5.27789C111.24 5.27789 110.847 5.32421 110.585 5.41684C110.339 5.49403 110.168 5.64071 110.076 5.85684C109.999 6.07298 109.96 6.41263 109.96 6.87579V17.5979C109.96 18.0611 109.999 18.4084 110.076 18.64C110.168 18.8561 110.339 19.0028 110.585 19.08C110.832 19.1572 111.225 19.1958 111.764 19.1958C111.81 19.1958 111.833 19.2421 111.833 19.3347C111.833 19.4274 111.81 19.4737 111.764 19.4737C111.225 19.4737 110.793 19.466 110.47 19.4505L108.688 19.4274L106.607 19.4505C106.329 19.466 105.952 19.4737 105.474 19.4737C105.427 19.4737 105.404 19.4274 105.404 19.3347C105.404 19.2421 105.427 19.1958 105.474 19.1958C106.044 19.1958 106.461 19.1572 106.722 19.08C106.985 19.0028 107.162 18.8561 107.254 18.64C107.347 18.4239 107.393 18.0765 107.393 17.5979V6.92211ZM98.5594 11.6232H108.573V12.2716H98.5594V11.6232ZM97.3568 6.87579C97.3568 6.41263 97.3106 6.07298 97.2181 5.85684C97.1256 5.64071 96.956 5.49403 96.7093 5.41684C96.478 5.32421 96.1003 5.27789 95.5761 5.27789C95.5299 5.27789 95.5067 5.23158 95.5067 5.13895C95.5067 5.04632 95.5299 5 95.5761 5L96.8249 5.02316C97.5342 5.05403 98.1045 5.06947 98.5363 5.06947C99.1221 5.06947 99.8005 5.05403 100.571 5.02316L101.843 5C101.874 5 101.89 5.04632 101.89 5.13895C101.89 5.23158 101.874 5.27789 101.843 5.27789C101.288 5.27789 100.88 5.32421 100.618 5.41684C100.356 5.50947 100.171 5.67158 100.063 5.90316C99.9701 6.11929 99.9239 6.45895 99.9239 6.92211V17.5979C99.9239 18.0611 99.9701 18.4084 100.063 18.64C100.155 18.8561 100.332 19.0028 100.595 19.08C100.857 19.1572 101.273 19.1958 101.843 19.1958C101.874 19.1958 101.89 19.2421 101.89 19.3347C101.89 19.4274 101.874 19.4737 101.843 19.4737C101.304 19.4737 100.872 19.466 100.548 19.4505L98.5363 19.4274L96.8018 19.4505C96.4935 19.466 96.0694 19.4737 95.5299 19.4737C95.4991 19.4737 95.4836 19.4274 95.4836 19.3347C95.4836 19.2421 95.4991 19.1958 95.5299 19.1958C96.0694 19.1958 96.4626 19.1572 96.7093 19.08C96.956 19.0028 97.1256 18.8561 97.2181 18.64C97.3106 18.4084 97.3568 18.0611 97.3568 17.5979V6.87579ZM119.596 17.5979C119.596 18.0765 119.635 18.4239 119.712 18.64C119.79 18.8561 119.936 19.0028 120.151 19.08C120.383 19.1572 120.745 19.1958 121.238 19.1958C121.285 19.1958 121.308 19.2421 121.308 19.3347C121.308 19.4274 121.285 19.4737 121.238 19.4737C120.73 19.4737 120.329 19.466 120.036 19.4505L118.278 19.4274L116.567 19.4505C116.259 19.466 115.843 19.4737 115.318 19.4737C115.288 19.4737 115.272 19.4274 115.272 19.3347C115.272 19.2421 115.288 19.1958 115.318 19.1958C115.812 19.1958 116.174 19.1572 116.405 19.08C116.636 19.0028 116.791 18.8561 116.868 18.64C116.96 18.4084 117.006 18.0611 117.006 17.5979V6.87579C117.006 6.41263 116.96 6.07298 116.868 5.85684C116.791 5.64071 116.636 5.49403 116.405 5.41684C116.174 5.32421 115.812 5.27789 115.318 5.27789C115.288 5.27789 115.272 5.23158 115.272 5.13895C115.272 5.04632 115.288 5 115.318 5L116.567 5.02316C117.276 5.05403 117.847 5.06947 118.278 5.06947C118.757 5.06947 119.35 5.05403 120.059 5.02316L121.238 5C121.285 5 121.308 5.04632 121.308 5.13895C121.308 5.23158 121.285 5.27789 121.238 5.27789C120.761 5.27789 120.406 5.32421 120.175 5.41684C119.943 5.50947 119.79 5.67158 119.712 5.90316C119.635 6.11929 119.596 6.45895 119.596 6.92211V17.5979ZM139.481 5C139.527 5 139.55 5.04632 139.55 5.13895C139.55 5.23158 139.527 5.27789 139.481 5.27789C138.926 5.27789 138.394 5.52492 137.885 6.01895C137.376 6.51298 136.967 7.17684 136.659 8.01053L132.381 19.4505C132.365 19.5123 132.28 19.5432 132.127 19.5432C131.972 19.5432 131.887 19.5123 131.872 19.4505L125.975 6.92211C125.698 6.36632 125.42 5.95719 125.143 5.69474C124.865 5.41684 124.556 5.27789 124.217 5.27789C124.171 5.27789 124.148 5.23158 124.148 5.13895C124.148 5.04632 124.171 5 124.217 5C124.449 5 124.611 5.00772 124.703 5.02316C125.011 5.05403 125.412 5.06947 125.906 5.06947C127.231 5.06947 128.357 5.05403 129.282 5.02316C129.528 5.00772 129.837 5 130.207 5C130.253 5 130.277 5.04632 130.277 5.13895C130.277 5.23158 130.253 5.27789 130.207 5.27789C129.745 5.27789 129.382 5.37824 129.12 5.57895C128.873 5.76421 128.75 6.03439 128.75 6.38947C128.75 6.65193 128.834 6.96842 129.005 7.33895L133.214 16.3242L132.127 18.2232L136.012 7.94105C136.165 7.50877 136.243 7.13824 136.243 6.82947C136.243 6.35087 136.096 5.97263 135.804 5.69474C135.526 5.41684 135.117 5.27789 134.578 5.27789C134.532 5.27789 134.509 5.23158 134.509 5.13895C134.509 5.04632 134.532 5 134.578 5L135.711 5.02316C136.359 5.05403 136.937 5.06947 137.446 5.06947C137.738 5.06947 138.101 5.05403 138.533 5.02316L139.481 5ZM142.167 19.4737C142.12 19.4737 142.097 19.4274 142.097 19.3347C142.097 19.2421 142.12 19.1958 142.167 19.1958C142.661 19.1958 143.015 19.1572 143.23 19.08C143.462 19.0028 143.616 18.8561 143.693 18.64C143.771 18.4084 143.809 18.0611 143.809 17.5979V6.87579C143.809 6.41263 143.771 6.07298 143.693 5.85684C143.616 5.64071 143.462 5.49403 143.23 5.41684C142.999 5.32421 142.645 5.27789 142.167 5.27789C142.12 5.27789 142.097 5.23158 142.097 5.13895C142.097 5.04632 142.12 5 142.167 5H151.972C152.127 5 152.203 5.06947 152.203 5.20842L152.25 8.28842C152.25 8.31929 152.203 8.34245 152.111 8.35789C152.034 8.37334 151.988 8.35789 151.972 8.31158C151.726 7.41614 151.31 6.75228 150.723 6.32C150.138 5.88772 149.367 5.67158 148.411 5.67158H147.717C147.254 5.67158 146.916 5.77193 146.699 5.97263C146.484 6.17334 146.376 6.48211 146.376 6.89895V17.5053C146.376 17.9529 146.461 18.2849 146.63 18.5011C146.8 18.7172 147.069 18.8253 147.439 18.8253H148.203C149.405 18.8253 150.369 18.5782 151.093 18.0842C151.819 17.5902 152.351 16.826 152.689 15.7916C152.689 15.7607 152.721 15.7453 152.782 15.7453C152.828 15.7453 152.867 15.7607 152.897 15.7916C152.943 15.8071 152.967 15.8224 152.967 15.8379C152.813 17.0421 152.735 18.1382 152.735 19.1263C152.735 19.2498 152.712 19.3424 152.666 19.4042C152.62 19.4505 152.527 19.4737 152.388 19.4737H142.167ZM151.093 14.3095C151.093 13.6765 150.847 13.1824 150.353 12.8274C149.876 12.4568 149.182 12.2716 148.272 12.2716H145.15V11.6232H148.295C149.19 11.6232 149.876 11.4687 150.353 11.16C150.832 10.8513 151.07 10.4189 151.07 9.86316C151.07 9.81684 151.109 9.79368 151.186 9.79368C151.278 9.79368 151.325 9.81684 151.325 9.86316L151.301 11.9474L151.325 13.0589C151.356 13.5839 151.371 14.0007 151.371 14.3095C151.371 14.3403 151.325 14.3558 151.232 14.3558C151.14 14.3558 151.093 14.3403 151.093 14.3095Z" fill="url(#paint1_linear_5_343)"/>
<path d="M46.3604 35.579V27.8421H49.6164C50.4406 27.8421 51.1654 28.0042 51.7908 28.3284C52.4236 28.6526 52.913 29.1058 53.2588 29.6879C53.612 30.27 53.7886 30.9442 53.7886 31.7105C53.7886 32.4769 53.612 33.1511 53.2588 33.7332C52.913 34.3153 52.4236 34.7684 51.7908 35.0926C51.1654 35.4169 50.4406 35.579 49.6164 35.579H46.3604ZM47.4641 34.6174H49.5502C50.1904 34.6174 50.7423 34.4958 51.2058 34.2526C51.6768 34.0095 52.041 33.6705 52.2986 33.2358C52.5561 32.7937 52.6849 32.2853 52.6849 31.7105C52.6849 31.1284 52.5561 30.62 52.2986 30.1853C52.041 29.7505 51.6768 29.4116 51.2058 29.1684C50.7423 28.9253 50.1904 28.8037 49.5502 28.8037H47.4641V34.6174ZM59.2431 31.18H63.2166V32.1195H59.2431V31.18ZM59.3424 34.6174H63.8457V35.579H58.2386V27.8421H63.6912V28.8037H59.3424V34.6174ZM70.644 35.6674C70.0553 35.6674 69.4924 35.579 68.9552 35.4021C68.4181 35.2179 67.995 34.9821 67.6859 34.6947L68.0943 33.8326C68.3887 34.0905 68.7639 34.3042 69.2202 34.4737C69.6764 34.6432 70.151 34.7279 70.644 34.7279C71.0929 34.7279 71.4571 34.6763 71.7367 34.5732C72.0163 34.47 72.2224 34.33 72.3548 34.1532C72.4873 33.969 72.5535 33.7626 72.5535 33.5342C72.5535 33.269 72.4652 33.0553 72.2886 32.8932C72.1193 32.7311 71.8949 32.6021 71.6153 32.5063C71.343 32.4032 71.0413 32.3147 70.7102 32.2411C70.3791 32.1674 70.0443 32.0826 69.7058 31.9869C69.3747 31.8837 69.0693 31.7547 68.7897 31.6C68.5174 31.4453 68.2967 31.239 68.1274 30.9811C67.9582 30.7158 67.8736 30.3769 67.8736 29.9642C67.8736 29.5663 67.9766 29.2016 68.1826 28.87C68.396 28.5311 68.7198 28.2621 69.1539 28.0632C69.5954 27.8569 70.1547 27.7537 70.8316 27.7537C71.2805 27.7537 71.7257 27.8126 72.1672 27.9305C72.6087 28.0484 72.9913 28.2179 73.3151 28.439L72.9508 29.3232C72.6197 29.1021 72.2702 28.9437 71.9023 28.8479C71.5344 28.7447 71.1775 28.6932 70.8316 28.6932C70.3975 28.6932 70.0406 28.7484 69.761 28.859C69.4814 28.9695 69.2753 29.1168 69.1429 29.3011C69.0178 29.4853 68.9552 29.6916 68.9552 29.92C68.9552 30.1926 69.0399 30.41 69.2091 30.5721C69.3857 30.7342 69.6101 30.8632 69.8824 30.959C70.162 31.0547 70.4674 31.1432 70.7985 31.2242C71.1297 31.2979 71.4608 31.3826 71.7919 31.4784C72.1304 31.5742 72.4358 31.6995 72.708 31.8542C72.9876 32.009 73.2121 32.2153 73.3813 32.4732C73.5506 32.7311 73.6352 33.0626 73.6352 33.4679C73.6352 33.8584 73.5285 34.2232 73.3151 34.5621C73.1017 34.8937 72.7706 35.1626 72.3217 35.369C71.8802 35.5679 71.321 35.6674 70.644 35.6674ZM78.0071 35.579V27.8421H79.1108V35.579H78.0071ZM87.6712 35.6674C87.0752 35.6674 86.527 35.5716 86.0266 35.38C85.5263 35.1811 85.0921 34.9047 84.7242 34.5511C84.3563 34.19 84.0693 33.77 83.8633 33.2911C83.6573 32.8121 83.5542 32.2853 83.5542 31.7105C83.5542 31.1358 83.6573 30.609 83.8633 30.13C84.0693 29.6511 84.3563 29.2347 84.7242 28.8811C85.0995 28.52 85.5373 28.2437 86.0377 28.0521C86.5381 27.8532 87.0899 27.7537 87.6933 27.7537C88.3041 27.7537 88.8633 27.8532 89.371 28.0521C89.8788 28.2511 90.3092 28.5495 90.6624 28.9474L89.9781 29.6326C89.6617 29.3232 89.3158 29.0984 88.9406 28.9584C88.5726 28.8111 88.1716 28.7374 87.7375 28.7374C87.296 28.7374 86.8839 28.8111 86.5013 28.9584C86.126 29.1058 85.7985 29.3121 85.5189 29.5774C85.2467 29.8426 85.0333 30.1595 84.8787 30.5279C84.7316 30.889 84.658 31.2832 84.658 31.7105C84.658 32.1305 84.7316 32.5247 84.8787 32.8932C85.0333 33.2542 85.2467 33.5711 85.5189 33.8437C85.7985 34.109 86.126 34.3153 86.5013 34.4626C86.8765 34.61 87.2849 34.6837 87.7264 34.6837C88.1385 34.6837 88.5322 34.6211 88.9075 34.4958C89.2901 34.3632 89.6433 34.1458 89.9671 33.8437L90.5962 34.6837C90.2136 35.0079 89.7647 35.2547 89.2496 35.4242C88.7419 35.5863 88.2158 35.6674 87.6712 35.6674ZM89.5366 34.54V31.6663H90.5962V34.6837L89.5366 34.54ZM95.4688 35.579V27.8421H96.3739L101.484 34.1974H101.01V27.8421H102.113V35.579H101.208L96.0979 29.2237H96.5726V35.579H95.4688ZM109.437 35.6674C108.848 35.6674 108.286 35.579 107.749 35.4021C107.211 35.2179 106.788 34.9821 106.479 34.6947L106.888 33.8326C107.182 34.0905 107.557 34.3042 108.013 34.4737C108.47 34.6432 108.944 34.7279 109.437 34.7279C109.886 34.7279 110.25 34.6763 110.53 34.5732C110.81 34.47 111.016 34.33 111.148 34.1532C111.281 33.969 111.347 33.7626 111.347 33.5342C111.347 33.269 111.258 33.0553 111.082 32.8932C110.913 32.7311 110.688 32.6021 110.408 32.5063C110.136 32.4032 109.834 32.3147 109.503 32.2411C109.172 32.1674 108.838 32.0826 108.499 31.9869C108.168 31.8837 107.862 31.7547 107.582 31.6C107.31 31.4453 107.089 31.239 106.92 30.9811C106.751 30.7158 106.667 30.3769 106.667 29.9642C106.667 29.5663 106.77 29.2016 106.976 28.87C107.189 28.5311 107.513 28.2621 107.947 28.0632C108.389 27.8569 108.948 27.7537 109.625 27.7537C110.074 27.7537 110.518 27.8126 110.96 27.9305C111.401 28.0484 111.784 28.2179 112.108 28.439L111.744 29.3232C111.413 29.1021 111.063 28.9437 110.695 28.8479C110.327 28.7447 109.971 28.6932 109.625 28.6932C109.191 28.6932 108.833 28.7484 108.554 28.859C108.274 28.9695 108.068 29.1168 107.936 29.3011C107.811 29.4853 107.749 29.6916 107.749 29.92C107.749 30.1926 107.833 30.41 108.002 30.5721C108.178 30.7342 108.403 30.8632 108.676 30.959C108.955 31.0547 109.26 31.1432 109.591 31.2242C109.922 31.2979 110.254 31.3826 110.585 31.4784C110.923 31.5742 111.229 31.6995 111.501 31.8542C111.781 32.009 112.005 32.2153 112.174 32.4732C112.343 32.7311 112.428 33.0626 112.428 33.4679C112.428 33.8584 112.321 34.2232 112.108 34.5621C111.894 34.8937 111.563 35.1626 111.114 35.369C110.673 35.5679 110.114 35.6674 109.437 35.6674Z" fill="url(#paint2_linear_5_343)"/>
<defs>
<linearGradient id="paint0_linear_5_343" x1="-1.02202" y1="-2.24214" x2="39.9505" y2="35.2891" gradientUnits="userSpaceOnUse">
<stop stop-color="#AE8625"/>
<stop offset="0.391734" stop-color="#F7EF8A"/>
<stop offset="0.741882" stop-color="#D2AC47"/>
<stop offset="0.920688" stop-color="#EDC967"/>
</linearGradient>
<linearGradient id="paint1_linear_5_343" x1="42.0832" y1="-0.772785" x2="51.5569" y2="44.9228" gradientUnits="userSpaceOnUse">
<stop stop-color="#AE8625"/>
<stop offset="0.391734" stop-color="#F7EF8A"/>
<stop offset="0.741882" stop-color="#D2AC47"/>
<stop offset="0.920688" stop-color="#EDC967"/>
</linearGradient>
<linearGradient id="paint2_linear_5_343" x1="42.0834" y1="22.7984" x2="46.5867" y2="54.6571" gradientUnits="userSpaceOnUse">
<stop stop-color="#AE8625"/>
<stop offset="0.391734" stop-color="#F7EF8A"/>
<stop offset="0.741882" stop-color="#D2AC47"/>
<stop offset="0.920688" stop-color="#EDC967"/>
</linearGradient>
</defs>
</svg>
