<svg width="60" height="60" viewBox="0 0 60 60" fill="none" xmlns="http://www.w3.org/2000/svg">
<g clip-path="url(#clip0_5_662)">
<path d="M17.0435 43.0446C18.5428 44.5782 19.3826 46.6401 19.3826 48.7875C19.3826 50.935 18.5428 52.9969 17.0435 54.5305C12.8975 58.7146 4.0873 59.9999 3.10536 59.9999H2.75077C2.36068 60.0032 1.97443 59.9226 1.61806 59.7635C1.26169 59.6044 0.943511 59.3705 0.684985 59.0776C0.426459 58.7847 0.233603 58.4397 0.119433 58.0657C0.00526197 57.6917 -0.0275675 57.2975 0.0231596 56.9097C0.15954 55.9252 1.38697 47.092 5.47838 42.9352C7.02708 41.4133 9.11501 40.5699 11.2835 40.5904C13.452 40.6109 15.5237 41.4936 17.0435 43.0446ZM50.1567 33.0629C45.221 37.9185 39.7272 42.1689 33.791 45.7246C32.5984 46.3904 31.2555 46.7387 29.8905 46.7365C28.8071 46.7428 27.7332 46.5333 26.7312 46.1201C25.7292 45.707 24.819 45.0985 24.0534 44.3299L15.8706 36.1258C14.6144 34.8696 13.7995 33.2382 13.5486 31.4772C13.2977 29.7163 13.6244 27.9214 14.4795 26.3628C18.026 20.4111 22.2653 14.903 27.1083 9.95445C30.9082 5.92194 35.6948 2.95703 40.9921 1.35459C46.2893 -0.247858 51.9127 -0.431999 57.303 0.820474C57.735 0.950582 58.128 1.18606 58.447 1.50582C58.7659 1.82558 59.0007 2.21965 59.1305 2.65274C60.4218 8.06559 60.2726 13.7235 58.6977 19.0604C57.1228 24.3972 54.1776 29.2258 50.1567 33.0629ZM47.4291 12.4977C46.6674 11.7296 45.6955 11.2054 44.6364 10.9917C43.5773 10.7781 42.4787 10.8845 41.48 11.2975C40.4813 11.7105 39.6274 12.4115 39.0266 13.3117C38.4257 14.2118 38.1049 15.2706 38.1049 16.3537C38.1049 17.4368 38.4257 18.4956 39.0266 19.3958C39.6274 20.2959 40.4813 20.9969 41.48 21.4099C42.4787 21.8229 43.5773 21.9293 44.6364 21.7157C45.6955 21.502 46.6674 20.9778 47.4291 20.2097C48.456 19.1958 49.0411 17.8156 49.0564 16.3706C49.0718 14.9257 48.5161 13.5333 47.5109 12.4977H47.4291ZM50.6204 36.3172C46.2036 40.4622 41.399 44.1712 36.2731 47.3928L41.7283 52.8623C41.9832 53.1157 42.2855 53.3163 42.6178 53.4524C42.9501 53.5884 43.306 53.6574 43.665 53.6553C44.3805 53.6523 45.0662 53.3675 45.5743 52.8623L47.4291 51.0027C48.7111 49.7285 49.7281 48.2119 50.4211 46.5406C51.114 44.8694 51.4692 43.0769 51.4659 41.267C51.5066 39.5847 51.248 37.9086 50.7022 36.3172H50.6204ZM9.02428 12.4157L7.1695 14.2753C6.66148 14.7877 6.37633 15.4808 6.37633 16.2033C6.37633 16.9258 6.66148 17.6189 7.1695 18.1313L12.6247 23.6007C15.7835 18.4681 19.4379 13.6592 23.5352 9.24342C21.0694 8.30974 18.3865 8.11246 15.8113 8.67546C13.236 9.23845 10.8786 10.5376 9.02428 12.4157Z" fill="url(#paint0_linear_5_662)"/>
</g>
<defs>
<linearGradient id="paint0_linear_5_662" x1="30" y1="0" x2="30" y2="60" gradientUnits="userSpaceOnUse">
<stop stop-color="#B88D70"/>
<stop offset="1" stop-color="#805A40"/>
</linearGradient>
<clipPath id="clip0_5_662">
<rect width="60" height="60" fill="white"/>
</clipPath>
</defs>
</svg>
